M48
METRIC,LZ,000.000
;FILE_FORMAT=3:3
;TYPE=PLATED
;Layer: PTH_Through_Via
;EasyEDA v6.5.47, 2024-12-01 04:29:06
;828b6d29a1934af580abbddb6604b3bb,8af82e7f419746c4a2ba1fe026a005d8,10
;Gerber Generator version 0.2
;Holesize 1 = 0.310 mm
T01C0.310
;Holesize 2 = 0.610 mm
T02C0.610
%
G05
G90
T01
X049784Y054102
X054356Y071628
X044196Y062992
X044196Y069596
X032004Y118618
X035052Y118618
X049530Y081534
X053848Y085852
X056388Y067056
X043180Y069342
X045212Y062484
X055372Y067564
X058674Y052832
X031496Y119380
X035306Y117602
X054864Y085852
X048768Y082296
X065786Y079248
X065024Y050038
X023114Y090170
X026670Y093980
X023114Y091186
X026162Y094742
X024130Y092964
X028702Y067564
X021336Y059690
X059690Y061722
X053340Y071374
X058928Y058674
X059690Y060452
X059690Y067310
X059690Y069596
X058928Y068072
X063246Y073660
X059182Y079502
X058166Y079756
X064262Y073406
X022352Y099314
X023368Y099060
X020828Y100838
X019812Y100330
X041402Y122428
X041402Y121412
X001016Y081280
X001016Y071120
X001016Y060960
X001016Y050800
X001016Y040640
X069850Y134620
X069850Y124460
X069850Y114300
X069850Y104140
X069850Y093980
X069850Y083820
X069850Y073660
X069850Y063500
X069850Y053340
X069850Y043180
X069850Y033020
X069850Y022860
X069850Y012700
X069850Y002540
X066040Y001270
X055880Y001270
X035560Y001016
X025400Y001016
X015240Y001016
X005080Y001016
X034290Y069596
X034290Y077978
X046990Y042418
X046990Y044196
X047752Y031242
X044958Y031242
X043180Y042672
X038100Y036322
X035306Y035052
X029718Y046482
X029718Y062230
X035052Y009652
X037592Y030988
X050546Y009398
X049276Y016510
X049276Y023368
X026162Y021082
X040132Y043688
X043180Y049784
X027686Y037592
X021590Y035052
X027432Y041656
X039624Y049022
X043180Y052578
X045466Y085852
X048006Y076962
X057658Y046990
X048514Y053848
X043172Y131580
X043172Y116340
X050792Y131580
X045712Y098354
X046982Y064770
X001580Y135580
X001524Y088138
X001580Y028900
X001580Y021280
X001580Y013660
X009200Y135580
X009200Y044140
X009200Y036520
X009200Y028900
X009200Y006040
X016820Y135580
X016820Y082240
X016820Y074620
X016820Y028900
X016820Y021280
X024440Y135580
X024440Y120340
X024440Y082240
X024440Y074620
X024440Y067000
X024440Y059380
X024440Y044140
X032060Y135580
X032060Y120340
X032060Y021280
X039680Y135580
X039680Y082240
X039680Y074620
X039680Y021280
X039680Y013660
X047300Y135580
X054920Y135580
X054920Y021280
X062540Y135580
X062540Y105100
X062540Y036520
X062540Y028900
X062540Y021280
X062540Y013660
X062540Y006040
X024638Y091948
X058674Y069596
X057912Y058674
X056896Y047498
X064770Y078486
X002540Y088646
X029972Y077216
X029972Y082296
X029972Y098298
X023368Y116078
X029972Y116078
X011430Y124714
X010668Y103886
X019050Y116078
X018796Y103886
X006858Y059690
X006858Y066040
X006858Y045720
X011430Y090170
X055118Y098298
X055118Y103124
X055118Y107950
X055118Y088646
X055118Y115570
X052578Y086868
X052578Y095758
X052578Y105664
X042926Y105664
X050546Y115570
X061976Y124968
X066040Y128270
X011938Y099060
X019812Y095504
X012700Y116078
X012700Y120650
T02
X047752Y073914
X061214Y059944
M30
