M48
METRIC,LZ,000.000
;FILE_FORMAT=3:3
;TYPE=PLATED
;Layer: PTH_Through
;EasyEDA v6.5.47, 2024-12-01 04:29:06
;828b6d29a1934af580abbddb6604b3bb,8af82e7f419746c4a2ba1fe026a005d8,10
;Gerber Generator version 0.2
;Holesize 1 = 0.310 mm
T01C0.310
;Holesize 2 = 0.610 mm
T02C0.610
;Holesize 3 = 0.712 mm
T03C0.712
;Holesize 4 = 0.889 mm
T04C0.889
;Holesize 5 = 0.900 mm
T05C0.900
;Holesize 6 = 0.901 mm
T06C0.901
;Holesize 7 = 0.915 mm
T07C0.915
;Holesize 8 = 1.000 mm
T08C1.000
;Holesize 9 = 1.101 mm
T09C1.101
;Holesize 10 = 1.200 mm
T10C1.200
%
G05
G90
T01
X049784Y054102
X054356Y071628
X044196Y062992
X044196Y069596
X032004Y118618
X035052Y118618
X049530Y081534
X053848Y085852
X056388Y067056
X043180Y069342
X045212Y062484
X055372Y067564
X058674Y052832
X031496Y119380
X035306Y117602
X054864Y085852
X048768Y082296
X065786Y079248
X065024Y050038
X023114Y090170
X026670Y093980
X023114Y091186
X026162Y094742
X024130Y092964
X028702Y067564
X021336Y059690
X059690Y061722
X053340Y071374
X058928Y058674
X059690Y060452
X059690Y067310
X059690Y069596
X058928Y068072
X063246Y073660
X059182Y079502
X058166Y079756
X064262Y073406
X022352Y099314
X023368Y099060
X020828Y100838
X019812Y100330
X041402Y122428
X041402Y121412
X001016Y081280
X001016Y071120
X001016Y060960
X001016Y050800
X001016Y040640
X069850Y134620
X069850Y124460
X069850Y114300
X069850Y104140
X069850Y093980
X069850Y083820
X069850Y073660
X069850Y063500
X069850Y053340
X069850Y043180
X069850Y033020
X069850Y022860
X069850Y012700
X069850Y002540
X066040Y001270
X055880Y001270
X035560Y001016
X025400Y001016
X015240Y001016
X005080Y001016
X034290Y069596
X034290Y077978
X046990Y042418
X046990Y044196
X047752Y031242
X044958Y031242
X043180Y042672
X038100Y036322
X035306Y035052
X029718Y046482
X029718Y062230
X035052Y009652
X037592Y030988
X050546Y009398
X049276Y016510
X049276Y023368
X026162Y021082
X040132Y043688
X043180Y049784
X027686Y037592
X021590Y035052
X027432Y041656
X039624Y049022
X043180Y052578
X045466Y085852
X048006Y076962
X057658Y046990
X048514Y053848
X043172Y131580
X043172Y116340
X050792Y131580
X045712Y098354
X046982Y064770
X001580Y135580
X001524Y088138
X001580Y028900
X001580Y021280
X001580Y013660
X009200Y135580
X009200Y044140
X009200Y036520
X009200Y028900
X009200Y006040
X016820Y135580
X016820Y082240
X016820Y074620
X016820Y028900
X016820Y021280
X024440Y135580
X024440Y120340
X024440Y082240
X024440Y074620
X024440Y067000
X024440Y059380
X024440Y044140
X032060Y135580
X032060Y120340
X032060Y021280
X039680Y135580
X039680Y082240
X039680Y074620
X039680Y021280
X039680Y013660
X047300Y135580
X054920Y135580
X054920Y021280
X062540Y135580
X062540Y105100
X062540Y036520
X062540Y028900
X062540Y021280
X062540Y013660
X062540Y006040
X024638Y091948
X058674Y069596
X057912Y058674
X056896Y047498
X064770Y078486
X002540Y088646
X029972Y077216
X029972Y082296
X029972Y098298
X023368Y116078
X029972Y116078
X011430Y124714
X010668Y103886
X019050Y116078
X018796Y103886
X006858Y059690
X006858Y066040
X006858Y045720
X011430Y090170
X055118Y098298
X055118Y103124
X055118Y107950
X055118Y088646
X055118Y115570
X052578Y086868
X052578Y095758
X052578Y105664
X042926Y105664
X050546Y115570
X061976Y124968
X066040Y128270
X011938Y099060
X019812Y095504
X012700Y116078
X012700Y120650
T02
X047752Y073914
X061214Y059944
T03
X016510Y038862
X013970Y038862
T04
X043434Y003556
X040894Y003556
X038354Y003556
X035814Y003556
X033274Y003556
T05
X002540Y133858
X002540Y123698
X027432Y125222
X027432Y135382
X050800Y125222
X050800Y135382
X060452Y096774
X060452Y106934
X011938Y102870
X001778Y102870
X045974Y073914
X035814Y073914
X051308Y069342
X041148Y069342
X011938Y111252
X001778Y111252
X056896Y111252
X067056Y111252
X032258Y047498
X032258Y037338
X050038Y036576
X060198Y036576
X050038Y039624
X060198Y039624
X050038Y042672
X060198Y042672
T06
X034290Y067564
X034290Y065024
X038862Y067564
X038862Y065024
X007620Y116586
X007620Y114046
X063500Y116586
X063500Y114046
T07
X059436Y033020
X056896Y033020
X054356Y033020
X051816Y033020
X049276Y033020
X046736Y033020
X044196Y033020
X041656Y033020
X039116Y033020
X036576Y033020
X034036Y033020
X031496Y033020
X028956Y033020
X026416Y033020
X023876Y033020
X021336Y033020
X018796Y033020
X016256Y033020
X013716Y033020
X013716Y007620
X016256Y007620
X018796Y007620
X021336Y007620
X023876Y007620
X026416Y007620
X028956Y007620
X031496Y007620
X034036Y007620
X036576Y007620
X039116Y007620
X041656Y007620
X044196Y007620
X046736Y007620
X049276Y007620
X051816Y007620
X054356Y007620
X056896Y007620
X059436Y007620
X015280Y110744
X017780Y110744
X020280Y110744
X045252Y110744
X047752Y110744
X050252Y110744
T08
X002540Y120396
X005080Y120396
X024384Y129540
X024384Y127000
X048006Y129540
X048006Y127000
X016990Y044450
X013490Y044450
X018502Y072898
X013502Y072898
X008890Y073914
X006350Y073914
X007620Y127000
X010160Y127000
X012700Y127000
X015240Y127000
X015240Y129540
X012700Y129540
X010160Y129540
X007620Y129540
X032512Y127000
X035052Y127000
X037592Y127000
X040132Y127000
X040132Y129540
X037592Y129540
X035052Y129540
X032512Y129540
X055880Y127000
X058420Y127000
X060960Y127000
X063500Y127000
X063500Y129540
X060960Y129540
X058420Y129540
X055880Y129540
X003302Y105918
X005842Y105918
X067818Y105664
X065278Y105664
X013716Y065310
X013716Y056610
X040386Y103126
X037846Y103126
X035306Y103126
X032766Y103123
X009144Y056515
X009144Y053975
X009144Y051435
X009144Y048895
T09
X066029Y090216
X063489Y090216
X066029Y092756
X063489Y092756
X066029Y095296
X063489Y095296
X066029Y097836
X063489Y097836
X019101Y055590
X019101Y051090
X025603Y055590
X025603Y051090
X033325Y055590
X033325Y051090
X039827Y055590
X039827Y051090
X047549Y055590
X047549Y051090
X054051Y055590
X054051Y051090
X005091Y097744
X007631Y097744
X005091Y095204
X007631Y095204
X005091Y092664
X007631Y092664
X005091Y090124
X007631Y090124
T10
X009144Y080015
X011684Y080005
X006604Y080015
M30
