G04 Layer: TopSilkscreenLayer*
G04 EasyEDA v6.5.47, 2024-12-01 04:29:06*
G04 828b6d29a1934af580abbddb6604b3bb,8af82e7f419746c4a2ba1fe026a005d8,10*
G04 Gerber Generator version 0.2*
G04 Scale: 100 percent, Rotated: No, Reflected: No *
G04 Dimensions in millimeters *
G04 leading zeros omitted , absolute positions ,4 integer and 5 decimal *
%FSLAX45Y45*%
%MOMM*%

%ADD10C,0.2032*%
%ADD11C,0.1524*%
%ADD12C,0.2540*%
%ADD13C,0.2007*%
%ADD14C,0.2000*%
%ADD15C,0.2030*%
%ADD16C,0.4000*%
%ADD17C,0.0174*%

%LPD*%
D10*
X3299713Y10809986D02*
G01*
X3311143Y10815828D01*
X3322827Y10827258D01*
X3328670Y10838942D01*
X3328670Y10862055D01*
X3322827Y10873486D01*
X3311143Y10885170D01*
X3299713Y10890758D01*
X3282441Y10896600D01*
X3253486Y10896600D01*
X3236213Y10890758D01*
X3224529Y10885170D01*
X3213100Y10873486D01*
X3207258Y10862055D01*
X3207258Y10838942D01*
X3213100Y10827258D01*
X3224529Y10815828D01*
X3236213Y10809986D01*
X3253486Y10809986D01*
X3253486Y10838942D02*
G01*
X3253486Y10809986D01*
X3328670Y10771886D02*
G01*
X3207258Y10771886D01*
X3328670Y10771886D02*
G01*
X3207258Y10691113D01*
X3328670Y10691113D02*
G01*
X3207258Y10691113D01*
X3328670Y10653013D02*
G01*
X3207258Y10653013D01*
X3328670Y10653013D02*
G01*
X3328670Y10612628D01*
X3322827Y10595355D01*
X3311143Y10583671D01*
X3299713Y10577829D01*
X3282441Y10572242D01*
X3253486Y10572242D01*
X3236213Y10577829D01*
X3224529Y10583671D01*
X3213100Y10595355D01*
X3207258Y10612628D01*
X3207258Y10653013D01*
X3582670Y10896854D02*
G01*
X3461258Y10850626D01*
X3582670Y10804397D02*
G01*
X3461258Y10850626D01*
X3553713Y10679684D02*
G01*
X3565143Y10685526D01*
X3576827Y10697210D01*
X3582670Y10708639D01*
X3582670Y10731754D01*
X3576827Y10743184D01*
X3565143Y10754868D01*
X3553713Y10760710D01*
X3536441Y10766297D01*
X3507486Y10766297D01*
X3490213Y10760710D01*
X3478529Y10754868D01*
X3467100Y10743184D01*
X3461258Y10731754D01*
X3461258Y10708639D01*
X3467100Y10697210D01*
X3478529Y10685526D01*
X3490213Y10679684D01*
X3553713Y10555224D02*
G01*
X3565143Y10560812D01*
X3576827Y10572495D01*
X3582670Y10583926D01*
X3582670Y10607039D01*
X3576827Y10618724D01*
X3565143Y10630154D01*
X3553713Y10635995D01*
X3536441Y10641584D01*
X3507486Y10641584D01*
X3490213Y10635995D01*
X3478529Y10630154D01*
X3467100Y10618724D01*
X3461258Y10607039D01*
X3461258Y10583926D01*
X3467100Y10572495D01*
X3478529Y10560812D01*
X3490213Y10555224D01*
X3819143Y10816081D02*
G01*
X3830827Y10827512D01*
X3836670Y10844784D01*
X3836670Y10867897D01*
X3830827Y10885424D01*
X3819143Y10896854D01*
X3807713Y10896854D01*
X3796029Y10891012D01*
X3790441Y10885424D01*
X3784600Y10873739D01*
X3773170Y10839195D01*
X3767327Y10827512D01*
X3761486Y10821924D01*
X3750056Y10816081D01*
X3732529Y10816081D01*
X3721100Y10827512D01*
X3715258Y10844784D01*
X3715258Y10867897D01*
X3721100Y10885424D01*
X3732529Y10896854D01*
X3807713Y10691368D02*
G01*
X3819143Y10697210D01*
X3830827Y10708639D01*
X3836670Y10720324D01*
X3836670Y10743184D01*
X3830827Y10754868D01*
X3819143Y10766297D01*
X3807713Y10772139D01*
X3790441Y10777981D01*
X3761486Y10777981D01*
X3744213Y10772139D01*
X3732529Y10766297D01*
X3721100Y10754868D01*
X3715258Y10743184D01*
X3715258Y10720324D01*
X3721100Y10708639D01*
X3732529Y10697210D01*
X3744213Y10691368D01*
X3836670Y10653268D02*
G01*
X3715258Y10653268D01*
X3715258Y10653268D02*
G01*
X3715258Y10583926D01*
X4073143Y10816081D02*
G01*
X4084827Y10827512D01*
X4090670Y10844784D01*
X4090670Y10867897D01*
X4084827Y10885424D01*
X4073143Y10896854D01*
X4061713Y10896854D01*
X4050029Y10891012D01*
X4044441Y10885424D01*
X4038600Y10873739D01*
X4027170Y10839195D01*
X4021327Y10827512D01*
X4015486Y10821924D01*
X4004056Y10816081D01*
X3986529Y10816081D01*
X3975100Y10827512D01*
X3969258Y10844784D01*
X3969258Y10867897D01*
X3975100Y10885424D01*
X3986529Y10896854D01*
X4090670Y10777981D02*
G01*
X3969258Y10777981D01*
X4090670Y10777981D02*
G01*
X4090670Y10737595D01*
X4084827Y10720324D01*
X4073143Y10708639D01*
X4061713Y10702797D01*
X4044441Y10697210D01*
X4015486Y10697210D01*
X3998213Y10702797D01*
X3986529Y10708639D01*
X3975100Y10720324D01*
X3969258Y10737595D01*
X3969258Y10777981D01*
X4090670Y10612881D02*
G01*
X3969258Y10659110D01*
X4090670Y10612881D02*
G01*
X3969258Y10566654D01*
X4009643Y10641584D02*
G01*
X4009643Y10583926D01*
D11*
X76200Y9055862D02*
G01*
X108457Y8971026D01*
X140970Y9055862D02*
G01*
X108457Y8971026D01*
X228092Y9035795D02*
G01*
X224028Y9043670D01*
X215900Y9051797D01*
X208026Y9055862D01*
X191770Y9055862D01*
X183642Y9051797D01*
X175513Y9043670D01*
X171450Y9035795D01*
X167639Y9023604D01*
X167639Y9003284D01*
X171450Y8991345D01*
X175513Y8983218D01*
X183642Y8975089D01*
X191770Y8971026D01*
X208026Y8971026D01*
X215900Y8975089D01*
X224028Y8983218D01*
X228092Y8991345D01*
X315468Y9035795D02*
G01*
X311404Y9043670D01*
X303276Y9051797D01*
X295147Y9055862D01*
X279145Y9055862D01*
X271018Y9051797D01*
X262889Y9043670D01*
X258826Y9035795D01*
X254762Y9023604D01*
X254762Y9003284D01*
X258826Y8991345D01*
X262889Y8983218D01*
X271018Y8975089D01*
X279145Y8971026D01*
X295147Y8971026D01*
X303276Y8975089D01*
X311404Y8983218D01*
X315468Y8991345D01*
X1076705Y9035795D02*
G01*
X1072642Y9043670D01*
X1064513Y9051797D01*
X1056386Y9055862D01*
X1040129Y9055862D01*
X1032255Y9051797D01*
X1024128Y9043670D01*
X1020063Y9035795D01*
X1016000Y9023604D01*
X1016000Y9003284D01*
X1020063Y8991345D01*
X1024128Y8983218D01*
X1032255Y8975089D01*
X1040129Y8971026D01*
X1056386Y8971026D01*
X1064513Y8975089D01*
X1072642Y8983218D01*
X1076705Y8991345D01*
X1076705Y9003284D01*
X1056386Y9003284D02*
G01*
X1076705Y9003284D01*
X1103376Y9055862D02*
G01*
X1103376Y8971026D01*
X1103376Y9055862D02*
G01*
X1159763Y8971026D01*
X1159763Y9055862D02*
G01*
X1159763Y8971026D01*
X1186434Y9055862D02*
G01*
X1186434Y8971026D01*
X1186434Y9055862D02*
G01*
X1214881Y9055862D01*
X1226820Y9051797D01*
X1234947Y9043670D01*
X1239012Y9035795D01*
X1243076Y9023604D01*
X1243076Y9003284D01*
X1239012Y8991345D01*
X1234947Y8983218D01*
X1226820Y8975089D01*
X1214881Y8971026D01*
X1186434Y8971026D01*
X136905Y9289795D02*
G01*
X132842Y9297670D01*
X124713Y9305797D01*
X116586Y9309862D01*
X100329Y9309862D01*
X92455Y9305797D01*
X84328Y9297670D01*
X80263Y9289795D01*
X76200Y9277604D01*
X76200Y9257284D01*
X80263Y9245345D01*
X84328Y9237218D01*
X92455Y9229089D01*
X100329Y9225026D01*
X116586Y9225026D01*
X124713Y9229089D01*
X132842Y9237218D01*
X136905Y9245345D01*
X219963Y9297670D02*
G01*
X212089Y9305797D01*
X199897Y9309862D01*
X183642Y9309862D01*
X171450Y9305797D01*
X163576Y9297670D01*
X163576Y9289795D01*
X167639Y9281668D01*
X171450Y9277604D01*
X179578Y9273539D01*
X203962Y9265412D01*
X212089Y9261347D01*
X215900Y9257284D01*
X219963Y9249410D01*
X219963Y9237218D01*
X212089Y9229089D01*
X199897Y9225026D01*
X183642Y9225026D01*
X171450Y9229089D01*
X163576Y9237218D01*
X246634Y9309862D02*
G01*
X246634Y9225026D01*
X246634Y9309862D02*
G01*
X303276Y9225026D01*
X303276Y9309862D02*
G01*
X303276Y9225026D01*
X1076705Y9289795D02*
G01*
X1072642Y9297670D01*
X1064513Y9305797D01*
X1056386Y9309862D01*
X1040129Y9309862D01*
X1032255Y9305797D01*
X1024128Y9297670D01*
X1020063Y9289795D01*
X1016000Y9277604D01*
X1016000Y9257284D01*
X1020063Y9245345D01*
X1024128Y9237218D01*
X1032255Y9229089D01*
X1040129Y9225026D01*
X1056386Y9225026D01*
X1064513Y9229089D01*
X1072642Y9237218D01*
X1076705Y9245345D01*
X1076705Y9257284D01*
X1056386Y9257284D02*
G01*
X1076705Y9257284D01*
X1103376Y9309862D02*
G01*
X1103376Y9225026D01*
X1103376Y9309862D02*
G01*
X1131570Y9309862D01*
X1143762Y9305797D01*
X1151889Y9297670D01*
X1155700Y9289795D01*
X1159763Y9277604D01*
X1159763Y9257284D01*
X1155700Y9245345D01*
X1151889Y9237218D01*
X1143762Y9229089D01*
X1131570Y9225026D01*
X1103376Y9225026D01*
X1210818Y9309862D02*
G01*
X1202689Y9305797D01*
X1194562Y9297670D01*
X1190497Y9289795D01*
X1186434Y9277604D01*
X1186434Y9257284D01*
X1190497Y9245345D01*
X1194562Y9237218D01*
X1202689Y9229089D01*
X1210818Y9225026D01*
X1226820Y9225026D01*
X1234947Y9229089D01*
X1243076Y9237218D01*
X1247139Y9245345D01*
X1251204Y9257284D01*
X1251204Y9277604D01*
X1247139Y9289795D01*
X1243076Y9297670D01*
X1234947Y9305797D01*
X1226820Y9309862D01*
X1210818Y9309862D01*
X1302004Y9309862D02*
G01*
X1290065Y9305797D01*
X1281937Y9293860D01*
X1277873Y9273539D01*
X1277873Y9261347D01*
X1281937Y9241281D01*
X1290065Y9229089D01*
X1302004Y9225026D01*
X1310131Y9225026D01*
X1322323Y9229089D01*
X1330452Y9241281D01*
X1334515Y9261347D01*
X1334515Y9273539D01*
X1330452Y9293860D01*
X1322323Y9305797D01*
X1310131Y9309862D01*
X1302004Y9309862D01*
X76200Y9563862D02*
G01*
X76200Y9479026D01*
X76200Y9563862D02*
G01*
X108457Y9479026D01*
X140970Y9563862D02*
G01*
X108457Y9479026D01*
X140970Y9563862D02*
G01*
X140970Y9479026D01*
X191770Y9563862D02*
G01*
X183642Y9559797D01*
X175513Y9551670D01*
X171450Y9543795D01*
X167639Y9531604D01*
X167639Y9511284D01*
X171450Y9499345D01*
X175513Y9491218D01*
X183642Y9483089D01*
X191770Y9479026D01*
X208026Y9479026D01*
X215900Y9483089D01*
X224028Y9491218D01*
X228092Y9499345D01*
X232155Y9511284D01*
X232155Y9531604D01*
X228092Y9543795D01*
X224028Y9551670D01*
X215900Y9559797D01*
X208026Y9563862D01*
X191770Y9563862D01*
X315468Y9551670D02*
G01*
X307339Y9559797D01*
X295147Y9563862D01*
X279145Y9563862D01*
X266954Y9559797D01*
X258826Y9551670D01*
X258826Y9543795D01*
X262889Y9535668D01*
X266954Y9531604D01*
X275081Y9527539D01*
X299212Y9519412D01*
X307339Y9515347D01*
X311404Y9511284D01*
X315468Y9503410D01*
X315468Y9491218D01*
X307339Y9483089D01*
X295147Y9479026D01*
X279145Y9479026D01*
X266954Y9483089D01*
X258826Y9491218D01*
X342137Y9563862D02*
G01*
X342137Y9479026D01*
X1072642Y9551670D02*
G01*
X1064513Y9559797D01*
X1052321Y9563862D01*
X1036320Y9563862D01*
X1024128Y9559797D01*
X1016000Y9551670D01*
X1016000Y9543795D01*
X1020063Y9535668D01*
X1024128Y9531604D01*
X1032255Y9527539D01*
X1056386Y9519412D01*
X1064513Y9515347D01*
X1068578Y9511284D01*
X1072642Y9503410D01*
X1072642Y9491218D01*
X1064513Y9483089D01*
X1052321Y9479026D01*
X1036320Y9479026D01*
X1024128Y9483089D01*
X1016000Y9491218D01*
X1159763Y9543795D02*
G01*
X1155700Y9551670D01*
X1147826Y9559797D01*
X1139697Y9563862D01*
X1123442Y9563862D01*
X1115313Y9559797D01*
X1107439Y9551670D01*
X1103376Y9543795D01*
X1099312Y9531604D01*
X1099312Y9511284D01*
X1103376Y9499345D01*
X1107439Y9491218D01*
X1115313Y9483089D01*
X1123442Y9479026D01*
X1139697Y9479026D01*
X1147826Y9483089D01*
X1155700Y9491218D01*
X1159763Y9499345D01*
X1186434Y9563862D02*
G01*
X1186434Y9479026D01*
X1243076Y9563862D02*
G01*
X1186434Y9507220D01*
X1206754Y9527539D02*
G01*
X1243076Y9479026D01*
X111505Y9797795D02*
G01*
X107442Y9805670D01*
X99313Y9813797D01*
X91186Y9817862D01*
X74929Y9817862D01*
X67055Y9813797D01*
X58928Y9805670D01*
X54863Y9797795D01*
X50800Y9785604D01*
X50800Y9765284D01*
X54863Y9753345D01*
X58928Y9745218D01*
X67055Y9737089D01*
X74929Y9733026D01*
X91186Y9733026D01*
X99313Y9737089D01*
X107442Y9745218D01*
X111505Y9753345D01*
X111505Y9765284D01*
X91186Y9765284D02*
G01*
X111505Y9765284D01*
X138176Y9817862D02*
G01*
X138176Y9733026D01*
X138176Y9817862D02*
G01*
X166370Y9817862D01*
X178562Y9813797D01*
X186689Y9805670D01*
X190500Y9797795D01*
X194563Y9785604D01*
X194563Y9765284D01*
X190500Y9753345D01*
X186689Y9745218D01*
X178562Y9737089D01*
X166370Y9733026D01*
X138176Y9733026D01*
X245618Y9817862D02*
G01*
X237489Y9813797D01*
X229362Y9805670D01*
X225297Y9797795D01*
X221234Y9785604D01*
X221234Y9765284D01*
X225297Y9753345D01*
X229362Y9745218D01*
X237489Y9737089D01*
X245618Y9733026D01*
X261620Y9733026D01*
X269747Y9737089D01*
X277876Y9745218D01*
X281939Y9753345D01*
X286004Y9765284D01*
X286004Y9785604D01*
X281939Y9797795D01*
X277876Y9805670D01*
X269747Y9813797D01*
X261620Y9817862D01*
X245618Y9817862D01*
X316737Y9797795D02*
G01*
X316737Y9801860D01*
X320802Y9809734D01*
X324865Y9813797D01*
X332739Y9817862D01*
X348995Y9817862D01*
X357123Y9813797D01*
X361187Y9809734D01*
X365252Y9801860D01*
X365252Y9793731D01*
X361187Y9785604D01*
X353060Y9773412D01*
X312673Y9733026D01*
X369315Y9733026D01*
X1016000Y9817862D02*
G01*
X1016000Y9733026D01*
X1016000Y9817862D02*
G01*
X1048257Y9733026D01*
X1080770Y9817862D02*
G01*
X1048257Y9733026D01*
X1080770Y9817862D02*
G01*
X1080770Y9733026D01*
X1107439Y9817862D02*
G01*
X1107439Y9733026D01*
X1190497Y9805670D02*
G01*
X1182370Y9813797D01*
X1170431Y9817862D01*
X1154176Y9817862D01*
X1141984Y9813797D01*
X1134110Y9805670D01*
X1134110Y9797795D01*
X1137920Y9789668D01*
X1141984Y9785604D01*
X1150112Y9781539D01*
X1174495Y9773412D01*
X1182370Y9769347D01*
X1186434Y9765284D01*
X1190497Y9757410D01*
X1190497Y9745218D01*
X1182370Y9737089D01*
X1170431Y9733026D01*
X1154176Y9733026D01*
X1141984Y9737089D01*
X1134110Y9745218D01*
X1241552Y9817862D02*
G01*
X1233423Y9813797D01*
X1225295Y9805670D01*
X1221231Y9797795D01*
X1217168Y9785604D01*
X1217168Y9765284D01*
X1221231Y9753345D01*
X1225295Y9745218D01*
X1233423Y9737089D01*
X1241552Y9733026D01*
X1257554Y9733026D01*
X1265681Y9737089D01*
X1273810Y9745218D01*
X1277873Y9753345D01*
X1281937Y9765284D01*
X1281937Y9785604D01*
X1277873Y9797795D01*
X1273810Y9805670D01*
X1265681Y9813797D01*
X1257554Y9817862D01*
X1241552Y9817862D01*
X5901618Y9827801D02*
G01*
X5897554Y9835675D01*
X5889426Y9843803D01*
X5881298Y9847867D01*
X5865042Y9847867D01*
X5857168Y9843803D01*
X5849040Y9835675D01*
X5844976Y9827801D01*
X5840912Y9815609D01*
X5840912Y9795289D01*
X5844976Y9783351D01*
X5849040Y9775223D01*
X5857168Y9767095D01*
X5865042Y9763031D01*
X5881298Y9763031D01*
X5889426Y9767095D01*
X5897554Y9775223D01*
X5901618Y9783351D01*
X5901618Y9795289D01*
X5881298Y9795289D02*
G01*
X5901618Y9795289D01*
X5928288Y9847867D02*
G01*
X5928288Y9763031D01*
X5928288Y9847867D02*
G01*
X5984676Y9763031D01*
X5984676Y9847867D02*
G01*
X5984676Y9763031D01*
X6011346Y9847867D02*
G01*
X6011346Y9763031D01*
X6011346Y9847867D02*
G01*
X6039794Y9847867D01*
X6051732Y9843803D01*
X6059860Y9835675D01*
X6063924Y9827801D01*
X6067988Y9815609D01*
X6067988Y9795289D01*
X6063924Y9783351D01*
X6059860Y9775223D01*
X6051732Y9767095D01*
X6039794Y9763031D01*
X6011346Y9763031D01*
X5902706Y9543795D02*
G01*
X5898641Y9551670D01*
X5890513Y9559797D01*
X5882386Y9563862D01*
X5866129Y9563862D01*
X5858256Y9559797D01*
X5850127Y9551670D01*
X5846063Y9543795D01*
X5842000Y9531604D01*
X5842000Y9511284D01*
X5846063Y9499345D01*
X5850127Y9491218D01*
X5858256Y9483089D01*
X5866129Y9479026D01*
X5882386Y9479026D01*
X5890513Y9483089D01*
X5898641Y9491218D01*
X5902706Y9499345D01*
X5902706Y9511284D01*
X5882386Y9511284D02*
G01*
X5902706Y9511284D01*
X5929375Y9563862D02*
G01*
X5929375Y9479026D01*
X5929375Y9563862D02*
G01*
X5957570Y9563862D01*
X5969761Y9559797D01*
X5977890Y9551670D01*
X5981700Y9543795D01*
X5985763Y9531604D01*
X5985763Y9511284D01*
X5981700Y9499345D01*
X5977890Y9491218D01*
X5969761Y9483089D01*
X5957570Y9479026D01*
X5929375Y9479026D01*
X6036818Y9563862D02*
G01*
X6028690Y9559797D01*
X6020561Y9551670D01*
X6016497Y9543795D01*
X6012434Y9531604D01*
X6012434Y9511284D01*
X6016497Y9499345D01*
X6020561Y9491218D01*
X6028690Y9483089D01*
X6036818Y9479026D01*
X6052820Y9479026D01*
X6060947Y9483089D01*
X6069075Y9491218D01*
X6073140Y9499345D01*
X6077204Y9511284D01*
X6077204Y9531604D01*
X6073140Y9543795D01*
X6069075Y9551670D01*
X6060947Y9559797D01*
X6052820Y9563862D01*
X6036818Y9563862D01*
X6128004Y9563862D02*
G01*
X6116065Y9559797D01*
X6107938Y9547860D01*
X6103874Y9527539D01*
X6103874Y9515347D01*
X6107938Y9495281D01*
X6116065Y9483089D01*
X6128004Y9479026D01*
X6136131Y9479026D01*
X6148324Y9483089D01*
X6156452Y9495281D01*
X6160515Y9515347D01*
X6160515Y9527539D01*
X6156452Y9547860D01*
X6148324Y9559797D01*
X6136131Y9563862D01*
X6128004Y9563862D01*
X5898641Y9297670D02*
G01*
X5890513Y9305797D01*
X5878322Y9309862D01*
X5862320Y9309862D01*
X5850127Y9305797D01*
X5842000Y9297670D01*
X5842000Y9289795D01*
X5846063Y9281668D01*
X5850127Y9277604D01*
X5858256Y9273539D01*
X5882386Y9265412D01*
X5890513Y9261347D01*
X5894577Y9257284D01*
X5898641Y9249410D01*
X5898641Y9237218D01*
X5890513Y9229089D01*
X5878322Y9225026D01*
X5862320Y9225026D01*
X5850127Y9229089D01*
X5842000Y9237218D01*
X5985763Y9289795D02*
G01*
X5981700Y9297670D01*
X5973825Y9305797D01*
X5965697Y9309862D01*
X5949441Y9309862D01*
X5941313Y9305797D01*
X5933440Y9297670D01*
X5929375Y9289795D01*
X5925311Y9277604D01*
X5925311Y9257284D01*
X5929375Y9245345D01*
X5933440Y9237218D01*
X5941313Y9229089D01*
X5949441Y9225026D01*
X5965697Y9225026D01*
X5973825Y9229089D01*
X5981700Y9237218D01*
X5985763Y9245345D01*
X6012434Y9309862D02*
G01*
X6012434Y9225026D01*
X6069075Y9309862D02*
G01*
X6012434Y9253220D01*
X6032754Y9273539D02*
G01*
X6069075Y9225026D01*
X5842000Y9055862D02*
G01*
X5842000Y8971026D01*
X5842000Y9055862D02*
G01*
X5874258Y8971026D01*
X5906770Y9055862D02*
G01*
X5874258Y8971026D01*
X5906770Y9055862D02*
G01*
X5906770Y8971026D01*
X5933440Y9055862D02*
G01*
X5933440Y8971026D01*
X6016497Y9043670D02*
G01*
X6008370Y9051797D01*
X5996431Y9055862D01*
X5980175Y9055862D01*
X5967984Y9051797D01*
X5960109Y9043670D01*
X5960109Y9035795D01*
X5963920Y9027668D01*
X5967984Y9023604D01*
X5976111Y9019539D01*
X6000495Y9011412D01*
X6008370Y9007347D01*
X6012434Y9003284D01*
X6016497Y8995410D01*
X6016497Y8983218D01*
X6008370Y8975089D01*
X5996431Y8971026D01*
X5980175Y8971026D01*
X5967984Y8975089D01*
X5960109Y8983218D01*
X6067552Y9055862D02*
G01*
X6059424Y9051797D01*
X6051295Y9043670D01*
X6047231Y9035795D01*
X6043168Y9023604D01*
X6043168Y9003284D01*
X6047231Y8991345D01*
X6051295Y8983218D01*
X6059424Y8975089D01*
X6067552Y8971026D01*
X6083554Y8971026D01*
X6091681Y8975089D01*
X6099809Y8983218D01*
X6103874Y8991345D01*
X6107938Y9003284D01*
X6107938Y9023604D01*
X6103874Y9035795D01*
X6099809Y9043670D01*
X6091681Y9051797D01*
X6083554Y9055862D01*
X6067552Y9055862D01*
X6756400Y9817862D02*
G01*
X6788658Y9733026D01*
X6821170Y9817862D02*
G01*
X6788658Y9733026D01*
X6908291Y9797795D02*
G01*
X6904227Y9805670D01*
X6896100Y9813797D01*
X6888225Y9817862D01*
X6871970Y9817862D01*
X6863841Y9813797D01*
X6855713Y9805670D01*
X6851650Y9797795D01*
X6847840Y9785604D01*
X6847840Y9765284D01*
X6851650Y9753345D01*
X6855713Y9745218D01*
X6863841Y9737089D01*
X6871970Y9733026D01*
X6888225Y9733026D01*
X6896100Y9737089D01*
X6904227Y9745218D01*
X6908291Y9753345D01*
X6995668Y9797795D02*
G01*
X6991604Y9805670D01*
X6983475Y9813797D01*
X6975347Y9817862D01*
X6959345Y9817862D01*
X6951218Y9813797D01*
X6943090Y9805670D01*
X6939025Y9797795D01*
X6934961Y9785604D01*
X6934961Y9765284D01*
X6939025Y9753345D01*
X6943090Y9745218D01*
X6951218Y9737089D01*
X6959345Y9733026D01*
X6975347Y9733026D01*
X6983475Y9737089D01*
X6991604Y9745218D01*
X6995668Y9753345D01*
X6817106Y9543795D02*
G01*
X6813041Y9551670D01*
X6804913Y9559797D01*
X6796786Y9563862D01*
X6780529Y9563862D01*
X6772656Y9559797D01*
X6764527Y9551670D01*
X6760463Y9543795D01*
X6756400Y9531604D01*
X6756400Y9511284D01*
X6760463Y9499345D01*
X6764527Y9491218D01*
X6772656Y9483089D01*
X6780529Y9479026D01*
X6796786Y9479026D01*
X6804913Y9483089D01*
X6813041Y9491218D01*
X6817106Y9499345D01*
X6900163Y9551670D02*
G01*
X6892290Y9559797D01*
X6880097Y9563862D01*
X6863841Y9563862D01*
X6851650Y9559797D01*
X6843775Y9551670D01*
X6843775Y9543795D01*
X6847840Y9535668D01*
X6851650Y9531604D01*
X6859777Y9527539D01*
X6884161Y9519412D01*
X6892290Y9515347D01*
X6896100Y9511284D01*
X6900163Y9503410D01*
X6900163Y9491218D01*
X6892290Y9483089D01*
X6880097Y9479026D01*
X6863841Y9479026D01*
X6851650Y9483089D01*
X6843775Y9491218D01*
X6926834Y9563862D02*
G01*
X6926834Y9479026D01*
X6926834Y9563862D02*
G01*
X6983475Y9479026D01*
X6983475Y9563862D02*
G01*
X6983475Y9479026D01*
X6817106Y9035795D02*
G01*
X6813041Y9043670D01*
X6804913Y9051797D01*
X6796786Y9055862D01*
X6780529Y9055862D01*
X6772656Y9051797D01*
X6764527Y9043670D01*
X6760463Y9035795D01*
X6756400Y9023604D01*
X6756400Y9003284D01*
X6760463Y8991345D01*
X6764527Y8983218D01*
X6772656Y8975089D01*
X6780529Y8971026D01*
X6796786Y8971026D01*
X6804913Y8975089D01*
X6813041Y8983218D01*
X6817106Y8991345D01*
X6817106Y9003284D01*
X6796786Y9003284D02*
G01*
X6817106Y9003284D01*
X6843775Y9055862D02*
G01*
X6843775Y8971026D01*
X6843775Y9055862D02*
G01*
X6871970Y9055862D01*
X6884161Y9051797D01*
X6892290Y9043670D01*
X6896100Y9035795D01*
X6900163Y9023604D01*
X6900163Y9003284D01*
X6896100Y8991345D01*
X6892290Y8983218D01*
X6884161Y8975089D01*
X6871970Y8971026D01*
X6843775Y8971026D01*
X6951218Y9055862D02*
G01*
X6943090Y9051797D01*
X6934961Y9043670D01*
X6930897Y9035795D01*
X6926834Y9023604D01*
X6926834Y9003284D01*
X6930897Y8991345D01*
X6934961Y8983218D01*
X6943090Y8975089D01*
X6951218Y8971026D01*
X6967220Y8971026D01*
X6975347Y8975089D01*
X6983475Y8983218D01*
X6987540Y8991345D01*
X6991604Y9003284D01*
X6991604Y9023604D01*
X6987540Y9035795D01*
X6983475Y9043670D01*
X6975347Y9051797D01*
X6967220Y9055862D01*
X6951218Y9055862D01*
X7022338Y9035795D02*
G01*
X7022338Y9039860D01*
X7026402Y9047734D01*
X7030465Y9051797D01*
X7038340Y9055862D01*
X7054595Y9055862D01*
X7062724Y9051797D01*
X7066788Y9047734D01*
X7070852Y9039860D01*
X7070852Y9031731D01*
X7066788Y9023604D01*
X7058659Y9011412D01*
X7018274Y8971026D01*
X7074915Y8971026D01*
X6756400Y9309862D02*
G01*
X6756400Y9225026D01*
X6756400Y9309862D02*
G01*
X6788658Y9225026D01*
X6821170Y9309862D02*
G01*
X6788658Y9225026D01*
X6821170Y9309862D02*
G01*
X6821170Y9225026D01*
X6871970Y9309862D02*
G01*
X6863841Y9305797D01*
X6855713Y9297670D01*
X6851650Y9289795D01*
X6847840Y9277604D01*
X6847840Y9257284D01*
X6851650Y9245345D01*
X6855713Y9237218D01*
X6863841Y9229089D01*
X6871970Y9225026D01*
X6888225Y9225026D01*
X6896100Y9229089D01*
X6904227Y9237218D01*
X6908291Y9245345D01*
X6912356Y9257284D01*
X6912356Y9277604D01*
X6908291Y9289795D01*
X6904227Y9297670D01*
X6896100Y9305797D01*
X6888225Y9309862D01*
X6871970Y9309862D01*
X6995668Y9297670D02*
G01*
X6987540Y9305797D01*
X6975347Y9309862D01*
X6959345Y9309862D01*
X6947154Y9305797D01*
X6939025Y9297670D01*
X6939025Y9289795D01*
X6943090Y9281668D01*
X6947154Y9277604D01*
X6955281Y9273539D01*
X6979411Y9265412D01*
X6987540Y9261347D01*
X6991604Y9257284D01*
X6995668Y9249410D01*
X6995668Y9237218D01*
X6987540Y9229089D01*
X6975347Y9225026D01*
X6959345Y9225026D01*
X6947154Y9229089D01*
X6939025Y9237218D01*
X7022338Y9309862D02*
G01*
X7022338Y9225026D01*
D10*
X3149600Y191515D02*
G01*
X3149600Y82550D01*
X3215131Y191515D02*
G01*
X3204718Y186436D01*
X3194304Y176021D01*
X3188970Y165607D01*
X3183890Y149860D01*
X3183890Y123952D01*
X3188970Y108457D01*
X3194304Y98044D01*
X3204718Y87629D01*
X3215131Y82550D01*
X3235959Y82550D01*
X3246120Y87629D01*
X3256534Y98044D01*
X3261868Y108457D01*
X3266947Y123952D01*
X3266947Y149860D01*
X3261868Y165607D01*
X3256534Y176021D01*
X3246120Y186436D01*
X3235959Y191515D01*
X3215131Y191515D01*
X3332479Y191515D02*
G01*
X3316986Y186436D01*
X3306572Y170687D01*
X3301238Y144779D01*
X3301238Y129286D01*
X3306572Y103123D01*
X3316986Y87629D01*
X3332479Y82550D01*
X3342893Y82550D01*
X3358388Y87629D01*
X3368802Y103123D01*
X3374136Y129286D01*
X3374136Y144779D01*
X3368802Y170687D01*
X3358388Y186436D01*
X3342893Y191515D01*
X3332479Y191515D01*
X3479800Y191515D02*
G01*
X3479800Y82550D01*
X3479800Y191515D02*
G01*
X3547363Y191515D01*
X3479800Y139700D02*
G01*
X3521456Y139700D01*
X3479800Y82550D02*
G01*
X3547363Y82550D01*
X3581654Y191515D02*
G01*
X3581654Y82550D01*
X3581654Y191515D02*
G01*
X3654297Y82550D01*
X3654297Y191515D02*
G01*
X3654297Y82550D01*
X3770122Y191515D02*
G01*
X3770122Y82550D01*
X3733800Y191515D02*
G01*
X3806443Y191515D01*
X3840734Y191515D02*
G01*
X3913631Y82550D01*
X3913631Y191515D02*
G01*
X3840734Y82550D01*
X4013200Y191515D02*
G01*
X4013200Y82550D01*
X4013200Y191515D02*
G01*
X4059936Y191515D01*
X4075429Y186436D01*
X4080763Y181102D01*
X4085843Y170687D01*
X4085843Y160273D01*
X4080763Y149860D01*
X4075429Y144779D01*
X4059936Y139700D01*
X4013200Y139700D01*
X4049522Y139700D02*
G01*
X4085843Y82550D01*
X4120134Y191515D02*
G01*
X4193031Y82550D01*
X4193031Y191515D02*
G01*
X4120134Y82550D01*
X4345177Y165607D02*
G01*
X4339843Y176021D01*
X4329429Y186436D01*
X4319270Y191515D01*
X4298441Y191515D01*
X4288027Y186436D01*
X4277613Y176021D01*
X4272279Y165607D01*
X4267200Y149860D01*
X4267200Y123952D01*
X4272279Y108457D01*
X4277613Y98044D01*
X4288027Y87629D01*
X4298441Y82550D01*
X4319270Y82550D01*
X4329429Y87629D01*
X4339843Y98044D01*
X4345177Y108457D01*
X4345177Y123952D01*
X4319270Y123952D02*
G01*
X4345177Y123952D01*
X4379468Y191515D02*
G01*
X4379468Y82550D01*
X4379468Y191515D02*
G01*
X4452111Y82550D01*
X4452111Y191515D02*
G01*
X4452111Y82550D01*
X4486402Y191515D02*
G01*
X4486402Y82550D01*
X4486402Y191515D02*
G01*
X4522724Y191515D01*
X4538472Y186436D01*
X4548886Y176021D01*
X4553965Y165607D01*
X4559300Y149860D01*
X4559300Y123952D01*
X4553965Y108457D01*
X4548886Y98044D01*
X4538472Y87629D01*
X4522724Y82550D01*
X4486402Y82550D01*
X662178Y8573008D02*
G01*
X656844Y8583421D01*
X646429Y8593836D01*
X636270Y8598915D01*
X615442Y8598915D01*
X605028Y8593836D01*
X594613Y8583421D01*
X589279Y8573008D01*
X584200Y8557260D01*
X584200Y8531352D01*
X589279Y8515858D01*
X594613Y8505444D01*
X605028Y8495029D01*
X615442Y8489950D01*
X636270Y8489950D01*
X646429Y8495029D01*
X656844Y8505444D01*
X662178Y8515858D01*
X774445Y8573008D02*
G01*
X769112Y8583421D01*
X758697Y8593836D01*
X748284Y8598915D01*
X727710Y8598915D01*
X717295Y8593836D01*
X706881Y8583421D01*
X701547Y8573008D01*
X696468Y8557260D01*
X696468Y8531352D01*
X701547Y8515858D01*
X706881Y8505444D01*
X717295Y8495029D01*
X727710Y8489950D01*
X748284Y8489950D01*
X758697Y8495029D01*
X769112Y8505444D01*
X774445Y8515858D01*
X808736Y8578087D02*
G01*
X819150Y8583421D01*
X834644Y8598915D01*
X834644Y8489950D01*
X868934Y8578087D02*
G01*
X879347Y8583421D01*
X894842Y8598915D01*
X894842Y8489950D01*
X960373Y8598915D02*
G01*
X944879Y8593836D01*
X934465Y8578087D01*
X929131Y8552179D01*
X929131Y8536686D01*
X934465Y8510524D01*
X944879Y8495029D01*
X960373Y8489950D01*
X970787Y8489950D01*
X986281Y8495029D01*
X996695Y8510524D01*
X1002029Y8536686D01*
X1002029Y8552179D01*
X996695Y8578087D01*
X986281Y8593836D01*
X970787Y8598915D01*
X960373Y8598915D01*
X1036320Y8578087D02*
G01*
X1046479Y8583421D01*
X1062228Y8598915D01*
X1062228Y8489950D01*
X6554977Y8547608D02*
G01*
X6549643Y8558021D01*
X6539229Y8568436D01*
X6529070Y8573515D01*
X6508241Y8573515D01*
X6497827Y8568436D01*
X6487413Y8558021D01*
X6482079Y8547608D01*
X6477000Y8531860D01*
X6477000Y8505952D01*
X6482079Y8490458D01*
X6487413Y8480044D01*
X6497827Y8469629D01*
X6508241Y8464550D01*
X6529070Y8464550D01*
X6539229Y8469629D01*
X6549643Y8480044D01*
X6554977Y8490458D01*
X6667245Y8547608D02*
G01*
X6661911Y8558021D01*
X6651497Y8568436D01*
X6641084Y8573515D01*
X6620509Y8573515D01*
X6610095Y8568436D01*
X6599681Y8558021D01*
X6594347Y8547608D01*
X6589268Y8531860D01*
X6589268Y8505952D01*
X6594347Y8490458D01*
X6599681Y8480044D01*
X6610095Y8469629D01*
X6620509Y8464550D01*
X6641084Y8464550D01*
X6651497Y8469629D01*
X6661911Y8480044D01*
X6667245Y8490458D01*
X6701536Y8552687D02*
G01*
X6711950Y8558021D01*
X6727443Y8573515D01*
X6727443Y8464550D01*
X6761734Y8552687D02*
G01*
X6772147Y8558021D01*
X6787641Y8573515D01*
X6787641Y8464550D01*
X6853174Y8573515D02*
G01*
X6837679Y8568436D01*
X6827265Y8552687D01*
X6821931Y8526779D01*
X6821931Y8511286D01*
X6827265Y8485124D01*
X6837679Y8469629D01*
X6853174Y8464550D01*
X6863588Y8464550D01*
X6879081Y8469629D01*
X6889495Y8485124D01*
X6894829Y8511286D01*
X6894829Y8526779D01*
X6889495Y8552687D01*
X6879081Y8568436D01*
X6863588Y8573515D01*
X6853174Y8573515D01*
X6929120Y8552687D02*
G01*
X6939279Y8558021D01*
X6955027Y8573515D01*
X6955027Y8464550D01*
D11*
X3251200Y6389115D02*
G01*
X3251200Y6280150D01*
X3251200Y6280150D02*
G01*
X3313429Y6280150D01*
X3347720Y6389115D02*
G01*
X3347720Y6280150D01*
X3347720Y6389115D02*
G01*
X3415284Y6389115D01*
X3347720Y6337300D02*
G01*
X3389375Y6337300D01*
X3347720Y6280150D02*
G01*
X3415284Y6280150D01*
X3449574Y6389115D02*
G01*
X3449574Y6280150D01*
X3449574Y6389115D02*
G01*
X3486150Y6389115D01*
X3501643Y6384036D01*
X3512058Y6373621D01*
X3517138Y6363207D01*
X3522472Y6347460D01*
X3522472Y6321552D01*
X3517138Y6306057D01*
X3512058Y6295644D01*
X3501643Y6285229D01*
X3486150Y6280150D01*
X3449574Y6280150D01*
X3567175Y6389115D02*
G01*
X3624325Y6389115D01*
X3593084Y6347460D01*
X3608577Y6347460D01*
X3618991Y6342379D01*
X3624325Y6337300D01*
X3629406Y6321552D01*
X3629406Y6311137D01*
X3624325Y6295644D01*
X3613911Y6285229D01*
X3598163Y6280150D01*
X3582670Y6280150D01*
X3567175Y6285229D01*
X3561841Y6290310D01*
X3556761Y6300723D01*
X3708400Y6389115D02*
G01*
X3708400Y6280150D01*
X3708400Y6280150D02*
G01*
X3770629Y6280150D01*
X3804920Y6389115D02*
G01*
X3804920Y6280150D01*
X3804920Y6389115D02*
G01*
X3872484Y6389115D01*
X3804920Y6337300D02*
G01*
X3846575Y6337300D01*
X3804920Y6280150D02*
G01*
X3872484Y6280150D01*
X3906774Y6389115D02*
G01*
X3906774Y6280150D01*
X3906774Y6389115D02*
G01*
X3943350Y6389115D01*
X3958843Y6384036D01*
X3969258Y6373621D01*
X3974338Y6363207D01*
X3979672Y6347460D01*
X3979672Y6321552D01*
X3974338Y6306057D01*
X3969258Y6295644D01*
X3958843Y6285229D01*
X3943350Y6280150D01*
X3906774Y6280150D01*
X4065777Y6389115D02*
G01*
X4013961Y6316471D01*
X4091940Y6316471D01*
X4065777Y6389115D02*
G01*
X4065777Y6280150D01*
X4011168Y7207250D02*
G01*
X4011168Y7098284D01*
X4011168Y7207250D02*
G01*
X4057904Y7207250D01*
X4073397Y7202170D01*
X4078731Y7196836D01*
X4083811Y7186421D01*
X4083811Y7176008D01*
X4078731Y7165594D01*
X4073397Y7160513D01*
X4057904Y7155434D01*
X4011168Y7155434D01*
X4047490Y7155434D02*
G01*
X4083811Y7098284D01*
X4191000Y7207250D02*
G01*
X4138929Y7098284D01*
X4118102Y7207250D02*
G01*
X4191000Y7207250D01*
X4519168Y6750050D02*
G01*
X4519168Y6641084D01*
X4519168Y6750050D02*
G01*
X4565904Y6750050D01*
X4581397Y6744970D01*
X4586731Y6739636D01*
X4591811Y6729221D01*
X4591811Y6718808D01*
X4586731Y6708394D01*
X4581397Y6703313D01*
X4565904Y6698234D01*
X4519168Y6698234D01*
X4555490Y6698234D02*
G01*
X4591811Y6641084D01*
X4652263Y6750050D02*
G01*
X4636515Y6744970D01*
X4631436Y6734555D01*
X4631436Y6724142D01*
X4636515Y6713728D01*
X4646929Y6708394D01*
X4667758Y6703313D01*
X4683252Y6698234D01*
X4693665Y6687820D01*
X4699000Y6677405D01*
X4699000Y6661658D01*
X4693665Y6651244D01*
X4688586Y6646163D01*
X4672838Y6641084D01*
X4652263Y6641084D01*
X4636515Y6646163D01*
X4631436Y6651244D01*
X4626102Y6661658D01*
X4626102Y6677405D01*
X4631436Y6687820D01*
X4641850Y6698234D01*
X4657343Y6703313D01*
X4678172Y6708394D01*
X4688586Y6713728D01*
X4693665Y6724142D01*
X4693665Y6734555D01*
X4688586Y6744970D01*
X4672838Y6750050D01*
X4652263Y6750050D01*
X382778Y11646408D02*
G01*
X377444Y11656821D01*
X367029Y11667236D01*
X356870Y11672315D01*
X336042Y11672315D01*
X325628Y11667236D01*
X315213Y11656821D01*
X309879Y11646408D01*
X304800Y11630660D01*
X304800Y11604752D01*
X309879Y11589258D01*
X315213Y11578844D01*
X325628Y11568429D01*
X336042Y11563350D01*
X356870Y11563350D01*
X367029Y11568429D01*
X377444Y11578844D01*
X382778Y11589258D01*
X417068Y11651487D02*
G01*
X427481Y11656821D01*
X442976Y11672315D01*
X442976Y11563350D01*
X2440177Y12433808D02*
G01*
X2434843Y12444221D01*
X2424429Y12454636D01*
X2414270Y12459715D01*
X2393441Y12459715D01*
X2383027Y12454636D01*
X2372613Y12444221D01*
X2367279Y12433808D01*
X2362200Y12418060D01*
X2362200Y12392152D01*
X2367279Y12376658D01*
X2372613Y12366244D01*
X2383027Y12355829D01*
X2393441Y12350750D01*
X2414270Y12350750D01*
X2424429Y12355829D01*
X2434843Y12366244D01*
X2440177Y12376658D01*
X2479547Y12433808D02*
G01*
X2479547Y12438887D01*
X2484881Y12449302D01*
X2489961Y12454636D01*
X2500375Y12459715D01*
X2521204Y12459715D01*
X2531618Y12454636D01*
X2536697Y12449302D01*
X2542031Y12438887D01*
X2542031Y12428474D01*
X2536697Y12418060D01*
X2526284Y12402565D01*
X2474468Y12350750D01*
X2547111Y12350750D01*
X4802377Y12433808D02*
G01*
X4797043Y12444221D01*
X4786629Y12454636D01*
X4776470Y12459715D01*
X4755641Y12459715D01*
X4745227Y12454636D01*
X4734813Y12444221D01*
X4729479Y12433808D01*
X4724400Y12418060D01*
X4724400Y12392152D01*
X4729479Y12376658D01*
X4734813Y12366244D01*
X4745227Y12355829D01*
X4755641Y12350750D01*
X4776470Y12350750D01*
X4786629Y12355829D01*
X4797043Y12366244D01*
X4802377Y12376658D01*
X4847081Y12459715D02*
G01*
X4904231Y12459715D01*
X4872990Y12418060D01*
X4888484Y12418060D01*
X4898897Y12412979D01*
X4904231Y12407900D01*
X4909311Y12392152D01*
X4909311Y12381737D01*
X4904231Y12366244D01*
X4893818Y12355829D01*
X4878070Y12350750D01*
X4862575Y12350750D01*
X4847081Y12355829D01*
X4841747Y12360910D01*
X4836668Y12371324D01*
X1500428Y4991607D02*
G01*
X1495094Y5002021D01*
X1484680Y5012436D01*
X1474266Y5017515D01*
X1453692Y5017515D01*
X1443278Y5012436D01*
X1432864Y5002021D01*
X1427530Y4991607D01*
X1422450Y4975860D01*
X1422450Y4949952D01*
X1427530Y4934457D01*
X1432864Y4924044D01*
X1443278Y4913629D01*
X1453692Y4908550D01*
X1474266Y4908550D01*
X1484680Y4913629D01*
X1495094Y4924044D01*
X1500428Y4934457D01*
X1586534Y5017515D02*
G01*
X1534718Y4944871D01*
X1612442Y4944871D01*
X1586534Y5017515D02*
G01*
X1586534Y4908550D01*
X1499290Y3675413D02*
G01*
X1493956Y3685827D01*
X1483542Y3696241D01*
X1473382Y3701321D01*
X1452554Y3701321D01*
X1442140Y3696241D01*
X1431726Y3685827D01*
X1426392Y3675413D01*
X1421312Y3659665D01*
X1421312Y3633757D01*
X1426392Y3618263D01*
X1431726Y3607849D01*
X1442140Y3597435D01*
X1452554Y3592355D01*
X1473382Y3592355D01*
X1483542Y3597435D01*
X1493956Y3607849D01*
X1499290Y3618263D01*
X1595810Y3701321D02*
G01*
X1543994Y3701321D01*
X1538660Y3654585D01*
X1543994Y3659665D01*
X1559488Y3664999D01*
X1574982Y3664999D01*
X1590730Y3659665D01*
X1601144Y3649505D01*
X1606224Y3633757D01*
X1606224Y3623343D01*
X1601144Y3607849D01*
X1590730Y3597435D01*
X1574982Y3592355D01*
X1559488Y3592355D01*
X1543994Y3597435D01*
X1538660Y3602515D01*
X1533580Y3612929D01*
X2248408Y7313472D02*
G01*
X2258822Y7318552D01*
X2269236Y7328966D01*
X2274315Y7339380D01*
X2274315Y7360208D01*
X2269236Y7370622D01*
X2258822Y7381036D01*
X2248408Y7386116D01*
X2232659Y7391450D01*
X2206752Y7391450D01*
X2191258Y7386116D01*
X2180843Y7381036D01*
X2170429Y7370622D01*
X2165350Y7360208D01*
X2165350Y7339380D01*
X2170429Y7328966D01*
X2180843Y7318552D01*
X2191258Y7313472D01*
X2258822Y7216952D02*
G01*
X2269236Y7222032D01*
X2274315Y7237526D01*
X2274315Y7247940D01*
X2269236Y7263688D01*
X2253488Y7274102D01*
X2227579Y7279182D01*
X2201672Y7279182D01*
X2180843Y7274102D01*
X2170429Y7263688D01*
X2165350Y7247940D01*
X2165350Y7242860D01*
X2170429Y7227112D01*
X2180843Y7216952D01*
X2196338Y7211618D01*
X2201672Y7211618D01*
X2217165Y7216952D01*
X2227579Y7227112D01*
X2232659Y7242860D01*
X2232659Y7247940D01*
X2227579Y7263688D01*
X2217165Y7274102D01*
X2201672Y7279182D01*
X535178Y6972808D02*
G01*
X529844Y6983221D01*
X519429Y6993636D01*
X509270Y6998715D01*
X488442Y6998715D01*
X478028Y6993636D01*
X467613Y6983221D01*
X462279Y6972808D01*
X457200Y6957060D01*
X457200Y6931152D01*
X462279Y6915658D01*
X467613Y6905244D01*
X478028Y6894829D01*
X488442Y6889750D01*
X509270Y6889750D01*
X519429Y6894829D01*
X529844Y6905244D01*
X535178Y6915658D01*
X642112Y6998715D02*
G01*
X590295Y6889750D01*
X569468Y6998715D02*
G01*
X642112Y6998715D01*
X838200Y10935843D02*
G01*
X838200Y10826877D01*
X838200Y10935843D02*
G01*
X884936Y10935843D01*
X900429Y10930762D01*
X905763Y10925429D01*
X910844Y10915014D01*
X910844Y10904601D01*
X905763Y10894187D01*
X900429Y10889106D01*
X884936Y10884027D01*
X838200Y10884027D01*
X874521Y10884027D02*
G01*
X910844Y10826877D01*
X945134Y10915014D02*
G01*
X955547Y10920349D01*
X971295Y10935843D01*
X971295Y10826877D01*
X5892800Y10935843D02*
G01*
X5892800Y10826877D01*
X5892800Y10935843D02*
G01*
X5939536Y10935843D01*
X5955029Y10930762D01*
X5960363Y10925429D01*
X5965443Y10915014D01*
X5965443Y10904601D01*
X5960363Y10894187D01*
X5955029Y10889106D01*
X5939536Y10884027D01*
X5892800Y10884027D01*
X5929122Y10884027D02*
G01*
X5965443Y10826877D01*
X6005068Y10909935D02*
G01*
X6005068Y10915014D01*
X6010147Y10925429D01*
X6015481Y10930762D01*
X6025895Y10935843D01*
X6046470Y10935843D01*
X6056884Y10930762D01*
X6062218Y10925429D01*
X6067297Y10915014D01*
X6067297Y10904601D01*
X6062218Y10894187D01*
X6051804Y10878693D01*
X5999734Y10826877D01*
X6072631Y10826877D01*
X3493515Y4241800D02*
G01*
X3384550Y4241800D01*
X3493515Y4241800D02*
G01*
X3493515Y4195063D01*
X3488436Y4179570D01*
X3483102Y4174236D01*
X3472688Y4169155D01*
X3462274Y4169155D01*
X3451859Y4174236D01*
X3446779Y4179570D01*
X3441700Y4195063D01*
X3441700Y4241800D01*
X3441700Y4205478D02*
G01*
X3384550Y4169155D01*
X3493515Y4124452D02*
G01*
X3493515Y4067302D01*
X3451859Y4098289D01*
X3451859Y4082795D01*
X3446779Y4072381D01*
X3441700Y4067302D01*
X3425952Y4061968D01*
X3415538Y4061968D01*
X3400043Y4067302D01*
X3389629Y4077715D01*
X3384550Y4093210D01*
X3384550Y4108704D01*
X3389629Y4124452D01*
X3394709Y4129531D01*
X3405124Y4134865D01*
X6172200Y3722115D02*
G01*
X6172200Y3613150D01*
X6172200Y3722115D02*
G01*
X6218936Y3722115D01*
X6234429Y3717036D01*
X6239763Y3711702D01*
X6244843Y3701287D01*
X6244843Y3690873D01*
X6239763Y3680460D01*
X6234429Y3675379D01*
X6218936Y3670300D01*
X6172200Y3670300D01*
X6208522Y3670300D02*
G01*
X6244843Y3613150D01*
X6331204Y3722115D02*
G01*
X6279134Y3649471D01*
X6357111Y3649471D01*
X6331204Y3722115D02*
G01*
X6331204Y3613150D01*
X6172200Y4026915D02*
G01*
X6172200Y3917950D01*
X6172200Y4026915D02*
G01*
X6218936Y4026915D01*
X6234429Y4021836D01*
X6239763Y4016502D01*
X6244843Y4006087D01*
X6244843Y3995673D01*
X6239763Y3985260D01*
X6234429Y3980179D01*
X6218936Y3975100D01*
X6172200Y3975100D01*
X6208522Y3975100D02*
G01*
X6244843Y3917950D01*
X6341618Y4026915D02*
G01*
X6289547Y4026915D01*
X6284468Y3980179D01*
X6289547Y3985260D01*
X6305295Y3990594D01*
X6320790Y3990594D01*
X6336284Y3985260D01*
X6346697Y3975100D01*
X6352031Y3959352D01*
X6352031Y3948937D01*
X6346697Y3933444D01*
X6336284Y3923029D01*
X6320790Y3917950D01*
X6305295Y3917950D01*
X6289547Y3923029D01*
X6284468Y3928110D01*
X6279134Y3938523D01*
X5511800Y4534915D02*
G01*
X5511800Y4425950D01*
X5511800Y4534915D02*
G01*
X5558536Y4534915D01*
X5574029Y4529836D01*
X5579363Y4524502D01*
X5584443Y4514087D01*
X5584443Y4503673D01*
X5579363Y4493260D01*
X5574029Y4488179D01*
X5558536Y4483100D01*
X5511800Y4483100D01*
X5548122Y4483100D02*
G01*
X5584443Y4425950D01*
X5681218Y4519421D02*
G01*
X5675884Y4529836D01*
X5660390Y4534915D01*
X5649975Y4534915D01*
X5634481Y4529836D01*
X5624068Y4514087D01*
X5618734Y4488179D01*
X5618734Y4462271D01*
X5624068Y4441444D01*
X5634481Y4431029D01*
X5649975Y4425950D01*
X5655309Y4425950D01*
X5670804Y4431029D01*
X5681218Y4441444D01*
X5686297Y4456937D01*
X5686297Y4462271D01*
X5681218Y4477765D01*
X5670804Y4488179D01*
X5655309Y4493260D01*
X5649975Y4493260D01*
X5634481Y4488179D01*
X5624068Y4477765D01*
X5618734Y4462271D01*
X1613915Y8128129D02*
G01*
X1535937Y8128129D01*
X1520444Y8123049D01*
X1510029Y8112635D01*
X1504950Y8096887D01*
X1504950Y8086473D01*
X1510029Y8070979D01*
X1520444Y8060565D01*
X1535937Y8055485D01*
X1613915Y8055485D01*
X1593087Y8021195D02*
G01*
X1598421Y8010781D01*
X1613915Y7995033D01*
X1504950Y7995033D01*
X293098Y13309617D02*
G01*
X215120Y13309617D01*
X199626Y13304283D01*
X189212Y13294123D01*
X184132Y13278375D01*
X184132Y13267961D01*
X189212Y13252467D01*
X199626Y13242053D01*
X215120Y13236973D01*
X293098Y13236973D01*
X267190Y13197349D02*
G01*
X272270Y13197349D01*
X282684Y13192269D01*
X288018Y13186935D01*
X293098Y13176521D01*
X293098Y13155693D01*
X288018Y13145533D01*
X282684Y13140199D01*
X272270Y13135119D01*
X261856Y13135119D01*
X251696Y13140199D01*
X235948Y13150613D01*
X184132Y13202683D01*
X184132Y13129785D01*
X717804Y12354305D02*
G01*
X709929Y12350242D01*
X701802Y12342113D01*
X697737Y12333986D01*
X697737Y12317729D01*
X701802Y12309855D01*
X709929Y12301728D01*
X717804Y12297663D01*
X729995Y12293600D01*
X750315Y12293600D01*
X762254Y12297663D01*
X770381Y12301728D01*
X778510Y12309855D01*
X782573Y12317729D01*
X782573Y12333986D01*
X778510Y12342113D01*
X770381Y12350242D01*
X762254Y12354305D01*
X750315Y12354305D01*
X750315Y12333986D02*
G01*
X750315Y12354305D01*
X697737Y12380976D02*
G01*
X782573Y12380976D01*
X697737Y12380976D02*
G01*
X782573Y12437363D01*
X697737Y12437363D02*
G01*
X782573Y12437363D01*
X697737Y12464034D02*
G01*
X782573Y12464034D01*
X697737Y12464034D02*
G01*
X697737Y12492481D01*
X701802Y12504420D01*
X709929Y12512547D01*
X717804Y12516612D01*
X729995Y12520676D01*
X750315Y12520676D01*
X762254Y12516612D01*
X770381Y12512547D01*
X778510Y12504420D01*
X782573Y12492481D01*
X782573Y12464034D01*
X971804Y12430505D02*
G01*
X963929Y12426442D01*
X955802Y12418313D01*
X951737Y12410186D01*
X951737Y12393929D01*
X955802Y12386055D01*
X963929Y12377928D01*
X971804Y12373863D01*
X983995Y12369800D01*
X1004315Y12369800D01*
X1016254Y12373863D01*
X1024381Y12377928D01*
X1032510Y12386055D01*
X1036573Y12393929D01*
X1036573Y12410186D01*
X1032510Y12418313D01*
X1024381Y12426442D01*
X1016254Y12430505D01*
X951737Y12457176D02*
G01*
X1036573Y12457176D01*
X951737Y12457176D02*
G01*
X951737Y12509500D01*
X992123Y12457176D02*
G01*
X992123Y12489434D01*
X1036573Y12457176D02*
G01*
X1036573Y12509500D01*
X1243329Y12350242D02*
G01*
X1235202Y12342113D01*
X1231137Y12329921D01*
X1231137Y12313920D01*
X1235202Y12301728D01*
X1243329Y12293600D01*
X1251204Y12293600D01*
X1259331Y12297663D01*
X1263395Y12301728D01*
X1267460Y12309855D01*
X1275587Y12333986D01*
X1279652Y12342113D01*
X1283715Y12346178D01*
X1291589Y12350242D01*
X1303781Y12350242D01*
X1311910Y12342113D01*
X1315973Y12329921D01*
X1315973Y12313920D01*
X1311910Y12301728D01*
X1303781Y12293600D01*
X1251204Y12437363D02*
G01*
X1243329Y12433300D01*
X1235202Y12425426D01*
X1231137Y12417297D01*
X1231137Y12401042D01*
X1235202Y12392913D01*
X1243329Y12385039D01*
X1251204Y12380976D01*
X1263395Y12376912D01*
X1283715Y12376912D01*
X1295654Y12380976D01*
X1303781Y12385039D01*
X1311910Y12392913D01*
X1315973Y12401042D01*
X1315973Y12417297D01*
X1311910Y12425426D01*
X1303781Y12433300D01*
X1295654Y12437363D01*
X1231137Y12464034D02*
G01*
X1315973Y12464034D01*
X1231137Y12520676D02*
G01*
X1287779Y12464034D01*
X1267460Y12484354D02*
G01*
X1315973Y12520676D01*
X1485137Y12268200D02*
G01*
X1569973Y12268200D01*
X1485137Y12268200D02*
G01*
X1569973Y12300458D01*
X1485137Y12332970D02*
G01*
X1569973Y12300458D01*
X1485137Y12332970D02*
G01*
X1569973Y12332970D01*
X1485137Y12359639D02*
G01*
X1569973Y12359639D01*
X1497329Y12442697D02*
G01*
X1489202Y12434570D01*
X1485137Y12422631D01*
X1485137Y12406376D01*
X1489202Y12394184D01*
X1497329Y12386310D01*
X1505204Y12386310D01*
X1513331Y12390120D01*
X1517395Y12394184D01*
X1521460Y12402312D01*
X1529587Y12426695D01*
X1533652Y12434570D01*
X1537715Y12438634D01*
X1545589Y12442697D01*
X1557781Y12442697D01*
X1565910Y12434570D01*
X1569973Y12422631D01*
X1569973Y12406376D01*
X1565910Y12394184D01*
X1557781Y12386310D01*
X1485137Y12493752D02*
G01*
X1489202Y12485624D01*
X1497329Y12477495D01*
X1505204Y12473431D01*
X1517395Y12469368D01*
X1537715Y12469368D01*
X1549654Y12473431D01*
X1557781Y12477495D01*
X1565910Y12485624D01*
X1569973Y12493752D01*
X1569973Y12509754D01*
X1565910Y12517881D01*
X1557781Y12526010D01*
X1549654Y12530074D01*
X1537715Y12534137D01*
X1517395Y12534137D01*
X1505204Y12530074D01*
X1497329Y12526010D01*
X1489202Y12517881D01*
X1485137Y12509754D01*
X1485137Y12493752D01*
X558800Y13221462D02*
G01*
X591057Y13136626D01*
X623570Y13221462D02*
G01*
X591057Y13136626D01*
X710692Y13201395D02*
G01*
X706628Y13209270D01*
X698500Y13217397D01*
X690626Y13221462D01*
X674370Y13221462D01*
X666242Y13217397D01*
X658113Y13209270D01*
X654050Y13201395D01*
X650239Y13189204D01*
X650239Y13168884D01*
X654050Y13156945D01*
X658113Y13148818D01*
X666242Y13140689D01*
X674370Y13136626D01*
X690626Y13136626D01*
X698500Y13140689D01*
X706628Y13148818D01*
X710692Y13156945D01*
X798068Y13201395D02*
G01*
X794004Y13209270D01*
X785876Y13217397D01*
X777747Y13221462D01*
X761745Y13221462D01*
X753618Y13217397D01*
X745489Y13209270D01*
X741426Y13201395D01*
X737362Y13189204D01*
X737362Y13168884D01*
X741426Y13156945D01*
X745489Y13148818D01*
X753618Y13140689D01*
X761745Y13136626D01*
X777747Y13136626D01*
X785876Y13140689D01*
X794004Y13148818D01*
X798068Y13156945D01*
X924305Y13201395D02*
G01*
X920242Y13209270D01*
X912113Y13217397D01*
X903986Y13221462D01*
X887729Y13221462D01*
X879855Y13217397D01*
X871728Y13209270D01*
X867663Y13201395D01*
X863600Y13189204D01*
X863600Y13168884D01*
X867663Y13156945D01*
X871728Y13148818D01*
X879855Y13140689D01*
X887729Y13136626D01*
X903986Y13136626D01*
X912113Y13140689D01*
X920242Y13148818D01*
X924305Y13156945D01*
X1007363Y13209270D02*
G01*
X999489Y13217397D01*
X987297Y13221462D01*
X971042Y13221462D01*
X958850Y13217397D01*
X950976Y13209270D01*
X950976Y13201395D01*
X955039Y13193268D01*
X958850Y13189204D01*
X966978Y13185139D01*
X991362Y13177012D01*
X999489Y13172947D01*
X1003300Y13168884D01*
X1007363Y13161010D01*
X1007363Y13148818D01*
X999489Y13140689D01*
X987297Y13136626D01*
X971042Y13136626D01*
X958850Y13140689D01*
X950976Y13148818D01*
X1034034Y13221462D02*
G01*
X1034034Y13136626D01*
X1034034Y13221462D02*
G01*
X1090676Y13136626D01*
X1090676Y13221462D02*
G01*
X1090676Y13136626D01*
X1168400Y13221462D02*
G01*
X1168400Y13136626D01*
X1168400Y13221462D02*
G01*
X1200657Y13136626D01*
X1233170Y13221462D02*
G01*
X1200657Y13136626D01*
X1233170Y13221462D02*
G01*
X1233170Y13136626D01*
X1283970Y13221462D02*
G01*
X1275842Y13217397D01*
X1267713Y13209270D01*
X1263650Y13201395D01*
X1259839Y13189204D01*
X1259839Y13168884D01*
X1263650Y13156945D01*
X1267713Y13148818D01*
X1275842Y13140689D01*
X1283970Y13136626D01*
X1300226Y13136626D01*
X1308100Y13140689D01*
X1316228Y13148818D01*
X1320292Y13156945D01*
X1324355Y13168884D01*
X1324355Y13189204D01*
X1320292Y13201395D01*
X1316228Y13209270D01*
X1308100Y13217397D01*
X1300226Y13221462D01*
X1283970Y13221462D01*
X1407668Y13209270D02*
G01*
X1399539Y13217397D01*
X1387347Y13221462D01*
X1371345Y13221462D01*
X1359154Y13217397D01*
X1351026Y13209270D01*
X1351026Y13201395D01*
X1355089Y13193268D01*
X1359154Y13189204D01*
X1367281Y13185139D01*
X1391412Y13177012D01*
X1399539Y13172947D01*
X1403604Y13168884D01*
X1407668Y13161010D01*
X1407668Y13148818D01*
X1399539Y13140689D01*
X1387347Y13136626D01*
X1371345Y13136626D01*
X1359154Y13140689D01*
X1351026Y13148818D01*
X1434337Y13221462D02*
G01*
X1434337Y13136626D01*
X1524000Y13221462D02*
G01*
X1524000Y13136626D01*
X1550670Y13221462D02*
G01*
X1550670Y13136626D01*
X1550670Y13221462D02*
G01*
X1586992Y13221462D01*
X1599184Y13217397D01*
X1603247Y13213334D01*
X1607312Y13205460D01*
X1607312Y13197331D01*
X1603247Y13189204D01*
X1599184Y13185139D01*
X1586992Y13181076D01*
X1550670Y13181076D01*
X1578863Y13181076D02*
G01*
X1607312Y13136626D01*
X1658112Y13221462D02*
G01*
X1649984Y13217397D01*
X1642110Y13209270D01*
X1638045Y13201395D01*
X1633981Y13189204D01*
X1633981Y13168884D01*
X1638045Y13156945D01*
X1642110Y13148818D01*
X1649984Y13140689D01*
X1658112Y13136626D01*
X1674368Y13136626D01*
X1682495Y13140689D01*
X1690370Y13148818D01*
X1694434Y13156945D01*
X1698497Y13168884D01*
X1698497Y13189204D01*
X1694434Y13201395D01*
X1690370Y13209270D01*
X1682495Y13217397D01*
X1674368Y13221462D01*
X1658112Y13221462D01*
X1670304Y13152881D02*
G01*
X1694434Y13128497D01*
D10*
X685800Y13615670D02*
G01*
X685800Y13494257D01*
X685800Y13615670D02*
G01*
X766571Y13494257D01*
X766571Y13615670D02*
G01*
X766571Y13494257D01*
X804671Y13615670D02*
G01*
X804671Y13494257D01*
X804671Y13615670D02*
G01*
X856742Y13615670D01*
X874013Y13609828D01*
X879855Y13603986D01*
X885444Y13592555D01*
X885444Y13580871D01*
X879855Y13569442D01*
X874013Y13563600D01*
X856742Y13557757D01*
X804671Y13557757D01*
X845057Y13557757D02*
G01*
X885444Y13494257D01*
X923544Y13615670D02*
G01*
X923544Y13494257D01*
X923544Y13615670D02*
G01*
X998728Y13615670D01*
X923544Y13557757D02*
G01*
X969771Y13557757D01*
X1042670Y13586713D02*
G01*
X1042670Y13592555D01*
X1048257Y13603986D01*
X1054100Y13609828D01*
X1065529Y13615670D01*
X1088644Y13615670D01*
X1100328Y13609828D01*
X1106170Y13603986D01*
X1111757Y13592555D01*
X1111757Y13580871D01*
X1106170Y13569442D01*
X1094486Y13552170D01*
X1036828Y13494257D01*
X1117600Y13494257D01*
X1213357Y13615670D02*
G01*
X1155700Y13534644D01*
X1242313Y13534644D01*
X1213357Y13615670D02*
G01*
X1213357Y13494257D01*
X1280413Y13615670D02*
G01*
X1280413Y13494257D01*
X1280413Y13494257D02*
G01*
X1349755Y13494257D01*
X1422400Y13615670D02*
G01*
X1405128Y13609828D01*
X1393444Y13592555D01*
X1387855Y13563600D01*
X1387855Y13546328D01*
X1393444Y13517371D01*
X1405128Y13500100D01*
X1422400Y13494257D01*
X1433829Y13494257D01*
X1451355Y13500100D01*
X1462786Y13517371D01*
X1468628Y13546328D01*
X1468628Y13563600D01*
X1462786Y13592555D01*
X1451355Y13609828D01*
X1433829Y13615670D01*
X1422400Y13615670D01*
X1506728Y13592555D02*
G01*
X1518157Y13598144D01*
X1535429Y13615670D01*
X1535429Y13494257D01*
X1625600Y13598144D02*
G01*
X1625600Y13494257D01*
X1573529Y13546328D02*
G01*
X1677670Y13546328D01*
X685800Y13387070D02*
G01*
X685800Y13265657D01*
X685800Y13387070D02*
G01*
X737870Y13387070D01*
X755142Y13381228D01*
X760729Y13375386D01*
X766571Y13363955D01*
X766571Y13346429D01*
X760729Y13335000D01*
X755142Y13329157D01*
X737870Y13323570D01*
X685800Y13323570D01*
X850900Y13387070D02*
G01*
X804671Y13265657D01*
X850900Y13387070D02*
G01*
X897128Y13265657D01*
X821944Y13306044D02*
G01*
X879855Y13306044D01*
X987044Y13369544D02*
G01*
X987044Y13265657D01*
X935228Y13317728D02*
G01*
X1039113Y13317728D01*
X1077213Y13387070D02*
G01*
X1077213Y13265657D01*
X1077213Y13265657D02*
G01*
X1146555Y13265657D01*
X1184655Y13387070D02*
G01*
X1184655Y13265657D01*
X1184655Y13387070D02*
G01*
X1265428Y13265657D01*
X1265428Y13387070D02*
G01*
X1265428Y13265657D01*
X1349755Y13387070D02*
G01*
X1303528Y13265657D01*
X1349755Y13387070D02*
G01*
X1395729Y13265657D01*
X1320800Y13306044D02*
G01*
X1378457Y13306044D01*
D11*
X2782315Y13335000D02*
G01*
X2704338Y13335000D01*
X2688843Y13329920D01*
X2678429Y13319505D01*
X2673350Y13303757D01*
X2673350Y13293344D01*
X2678429Y13277850D01*
X2688843Y13267436D01*
X2704338Y13262355D01*
X2782315Y13262355D01*
X2782315Y13217652D02*
G01*
X2782315Y13160502D01*
X2740659Y13191489D01*
X2740659Y13175995D01*
X2735579Y13165581D01*
X2730500Y13160502D01*
X2714752Y13155168D01*
X2704338Y13155168D01*
X2688843Y13160502D01*
X2678429Y13170916D01*
X2673350Y13186410D01*
X2673350Y13201904D01*
X2678429Y13217652D01*
X2683509Y13222731D01*
X2693924Y13228066D01*
X3232404Y12354305D02*
G01*
X3224529Y12350242D01*
X3216402Y12342113D01*
X3212338Y12333986D01*
X3212338Y12317729D01*
X3216402Y12309855D01*
X3224529Y12301728D01*
X3232404Y12297663D01*
X3244595Y12293600D01*
X3264915Y12293600D01*
X3276854Y12297663D01*
X3284981Y12301728D01*
X3293109Y12309855D01*
X3297174Y12317729D01*
X3297174Y12333986D01*
X3293109Y12342113D01*
X3284981Y12350242D01*
X3276854Y12354305D01*
X3264915Y12354305D01*
X3264915Y12333986D02*
G01*
X3264915Y12354305D01*
X3212338Y12380976D02*
G01*
X3297174Y12380976D01*
X3212338Y12380976D02*
G01*
X3297174Y12437363D01*
X3212338Y12437363D02*
G01*
X3297174Y12437363D01*
X3212338Y12464034D02*
G01*
X3297174Y12464034D01*
X3212338Y12464034D02*
G01*
X3212338Y12492481D01*
X3216402Y12504420D01*
X3224529Y12512547D01*
X3232404Y12516612D01*
X3244595Y12520676D01*
X3264915Y12520676D01*
X3276854Y12516612D01*
X3284981Y12512547D01*
X3293109Y12504420D01*
X3297174Y12492481D01*
X3297174Y12464034D01*
X3486404Y12430505D02*
G01*
X3478529Y12426442D01*
X3470402Y12418313D01*
X3466338Y12410186D01*
X3466338Y12393929D01*
X3470402Y12386055D01*
X3478529Y12377928D01*
X3486404Y12373863D01*
X3498595Y12369800D01*
X3518915Y12369800D01*
X3530854Y12373863D01*
X3538981Y12377928D01*
X3547109Y12386055D01*
X3551174Y12393929D01*
X3551174Y12410186D01*
X3547109Y12418313D01*
X3538981Y12426442D01*
X3530854Y12430505D01*
X3466338Y12457176D02*
G01*
X3551174Y12457176D01*
X3466338Y12457176D02*
G01*
X3466338Y12509500D01*
X3506724Y12457176D02*
G01*
X3506724Y12489434D01*
X3551174Y12457176D02*
G01*
X3551174Y12509500D01*
X3707129Y12324842D02*
G01*
X3699002Y12316713D01*
X3694938Y12304521D01*
X3694938Y12288520D01*
X3699002Y12276328D01*
X3707129Y12268200D01*
X3715004Y12268200D01*
X3723131Y12272263D01*
X3727195Y12276328D01*
X3731259Y12284455D01*
X3739388Y12308586D01*
X3743452Y12316713D01*
X3747515Y12320778D01*
X3755390Y12324842D01*
X3767581Y12324842D01*
X3775709Y12316713D01*
X3779774Y12304521D01*
X3779774Y12288520D01*
X3775709Y12276328D01*
X3767581Y12268200D01*
X3715004Y12411963D02*
G01*
X3707129Y12407900D01*
X3699002Y12400026D01*
X3694938Y12391897D01*
X3694938Y12375642D01*
X3699002Y12367513D01*
X3707129Y12359639D01*
X3715004Y12355576D01*
X3727195Y12351512D01*
X3747515Y12351512D01*
X3759454Y12355576D01*
X3767581Y12359639D01*
X3775709Y12367513D01*
X3779774Y12375642D01*
X3779774Y12391897D01*
X3775709Y12400026D01*
X3767581Y12407900D01*
X3759454Y12411963D01*
X3694938Y12438634D02*
G01*
X3779774Y12438634D01*
X3694938Y12495276D02*
G01*
X3751579Y12438634D01*
X3731259Y12458954D02*
G01*
X3779774Y12495276D01*
X3948938Y12242800D02*
G01*
X4033774Y12242800D01*
X3948938Y12242800D02*
G01*
X4033774Y12275058D01*
X3948938Y12307570D02*
G01*
X4033774Y12275058D01*
X3948938Y12307570D02*
G01*
X4033774Y12307570D01*
X3948938Y12334239D02*
G01*
X4033774Y12334239D01*
X3961129Y12417297D02*
G01*
X3953002Y12409170D01*
X3948938Y12397231D01*
X3948938Y12380976D01*
X3953002Y12368784D01*
X3961129Y12360910D01*
X3969004Y12360910D01*
X3977131Y12364720D01*
X3981195Y12368784D01*
X3985259Y12376912D01*
X3993388Y12401295D01*
X3997452Y12409170D01*
X4001515Y12413234D01*
X4009390Y12417297D01*
X4021581Y12417297D01*
X4029709Y12409170D01*
X4033774Y12397231D01*
X4033774Y12380976D01*
X4029709Y12368784D01*
X4021581Y12360910D01*
X3948938Y12468352D02*
G01*
X3953002Y12460224D01*
X3961129Y12452095D01*
X3969004Y12448031D01*
X3981195Y12443968D01*
X4001515Y12443968D01*
X4013454Y12448031D01*
X4021581Y12452095D01*
X4029709Y12460224D01*
X4033774Y12468352D01*
X4033774Y12484354D01*
X4029709Y12492481D01*
X4021581Y12500610D01*
X4013454Y12504674D01*
X4001515Y12508737D01*
X3981195Y12508737D01*
X3969004Y12504674D01*
X3961129Y12500610D01*
X3953002Y12492481D01*
X3948938Y12484354D01*
X3948938Y12468352D01*
X3022600Y13221462D02*
G01*
X3054858Y13136626D01*
X3087370Y13221462D02*
G01*
X3054858Y13136626D01*
X3174491Y13201395D02*
G01*
X3170427Y13209270D01*
X3162300Y13217397D01*
X3154425Y13221462D01*
X3138170Y13221462D01*
X3130041Y13217397D01*
X3121913Y13209270D01*
X3117850Y13201395D01*
X3114040Y13189204D01*
X3114040Y13168884D01*
X3117850Y13156945D01*
X3121913Y13148818D01*
X3130041Y13140689D01*
X3138170Y13136626D01*
X3154425Y13136626D01*
X3162300Y13140689D01*
X3170427Y13148818D01*
X3174491Y13156945D01*
X3261868Y13201395D02*
G01*
X3257804Y13209270D01*
X3249675Y13217397D01*
X3241547Y13221462D01*
X3225545Y13221462D01*
X3217418Y13217397D01*
X3209290Y13209270D01*
X3205225Y13201395D01*
X3201161Y13189204D01*
X3201161Y13168884D01*
X3205225Y13156945D01*
X3209290Y13148818D01*
X3217418Y13140689D01*
X3225545Y13136626D01*
X3241547Y13136626D01*
X3249675Y13140689D01*
X3257804Y13148818D01*
X3261868Y13156945D01*
X3413506Y13201395D02*
G01*
X3409441Y13209270D01*
X3401313Y13217397D01*
X3393186Y13221462D01*
X3376929Y13221462D01*
X3369056Y13217397D01*
X3360927Y13209270D01*
X3356863Y13201395D01*
X3352800Y13189204D01*
X3352800Y13168884D01*
X3356863Y13156945D01*
X3360927Y13148818D01*
X3369056Y13140689D01*
X3376929Y13136626D01*
X3393186Y13136626D01*
X3401313Y13140689D01*
X3409441Y13148818D01*
X3413506Y13156945D01*
X3496563Y13209270D02*
G01*
X3488690Y13217397D01*
X3476497Y13221462D01*
X3460241Y13221462D01*
X3448050Y13217397D01*
X3440175Y13209270D01*
X3440175Y13201395D01*
X3444240Y13193268D01*
X3448050Y13189204D01*
X3456177Y13185139D01*
X3480561Y13177012D01*
X3488690Y13172947D01*
X3492500Y13168884D01*
X3496563Y13161010D01*
X3496563Y13148818D01*
X3488690Y13140689D01*
X3476497Y13136626D01*
X3460241Y13136626D01*
X3448050Y13140689D01*
X3440175Y13148818D01*
X3523234Y13221462D02*
G01*
X3523234Y13136626D01*
X3523234Y13221462D02*
G01*
X3579875Y13136626D01*
X3579875Y13221462D02*
G01*
X3579875Y13136626D01*
X3657600Y13221462D02*
G01*
X3657600Y13136626D01*
X3657600Y13221462D02*
G01*
X3689858Y13136626D01*
X3722370Y13221462D02*
G01*
X3689858Y13136626D01*
X3722370Y13221462D02*
G01*
X3722370Y13136626D01*
X3773170Y13221462D02*
G01*
X3765041Y13217397D01*
X3756913Y13209270D01*
X3752850Y13201395D01*
X3749040Y13189204D01*
X3749040Y13168884D01*
X3752850Y13156945D01*
X3756913Y13148818D01*
X3765041Y13140689D01*
X3773170Y13136626D01*
X3789425Y13136626D01*
X3797300Y13140689D01*
X3805427Y13148818D01*
X3809491Y13156945D01*
X3813556Y13168884D01*
X3813556Y13189204D01*
X3809491Y13201395D01*
X3805427Y13209270D01*
X3797300Y13217397D01*
X3789425Y13221462D01*
X3773170Y13221462D01*
X3896868Y13209270D02*
G01*
X3888740Y13217397D01*
X3876547Y13221462D01*
X3860545Y13221462D01*
X3848354Y13217397D01*
X3840225Y13209270D01*
X3840225Y13201395D01*
X3844290Y13193268D01*
X3848354Y13189204D01*
X3856481Y13185139D01*
X3880611Y13177012D01*
X3888740Y13172947D01*
X3892804Y13168884D01*
X3896868Y13161010D01*
X3896868Y13148818D01*
X3888740Y13140689D01*
X3876547Y13136626D01*
X3860545Y13136626D01*
X3848354Y13140689D01*
X3840225Y13148818D01*
X3923538Y13221462D02*
G01*
X3923538Y13136626D01*
X4013200Y13221462D02*
G01*
X4013200Y13136626D01*
X4039870Y13221462D02*
G01*
X4039870Y13136626D01*
X4039870Y13221462D02*
G01*
X4076191Y13221462D01*
X4088384Y13217397D01*
X4092447Y13213334D01*
X4096511Y13205460D01*
X4096511Y13197331D01*
X4092447Y13189204D01*
X4088384Y13185139D01*
X4076191Y13181076D01*
X4039870Y13181076D01*
X4068063Y13181076D02*
G01*
X4096511Y13136626D01*
X4147311Y13221462D02*
G01*
X4139184Y13217397D01*
X4131309Y13209270D01*
X4127245Y13201395D01*
X4123181Y13189204D01*
X4123181Y13168884D01*
X4127245Y13156945D01*
X4131309Y13148818D01*
X4139184Y13140689D01*
X4147311Y13136626D01*
X4163568Y13136626D01*
X4171695Y13140689D01*
X4179570Y13148818D01*
X4183634Y13156945D01*
X4187697Y13168884D01*
X4187697Y13189204D01*
X4183634Y13201395D01*
X4179570Y13209270D01*
X4171695Y13217397D01*
X4163568Y13221462D01*
X4147311Y13221462D01*
X4159504Y13152881D02*
G01*
X4183634Y13128497D01*
D10*
X3149600Y13615670D02*
G01*
X3149600Y13494257D01*
X3149600Y13615670D02*
G01*
X3230372Y13494257D01*
X3230372Y13615670D02*
G01*
X3230372Y13494257D01*
X3268472Y13615670D02*
G01*
X3268472Y13494257D01*
X3268472Y13615670D02*
G01*
X3320541Y13615670D01*
X3337813Y13609828D01*
X3343656Y13603986D01*
X3349243Y13592555D01*
X3349243Y13580871D01*
X3343656Y13569442D01*
X3337813Y13563600D01*
X3320541Y13557757D01*
X3268472Y13557757D01*
X3308858Y13557757D02*
G01*
X3349243Y13494257D01*
X3387343Y13615670D02*
G01*
X3387343Y13494257D01*
X3387343Y13615670D02*
G01*
X3462527Y13615670D01*
X3387343Y13557757D02*
G01*
X3433572Y13557757D01*
X3506470Y13586713D02*
G01*
X3506470Y13592555D01*
X3512058Y13603986D01*
X3517900Y13609828D01*
X3529329Y13615670D01*
X3552443Y13615670D01*
X3564127Y13609828D01*
X3569970Y13603986D01*
X3575558Y13592555D01*
X3575558Y13580871D01*
X3569970Y13569442D01*
X3558286Y13552170D01*
X3500627Y13494257D01*
X3581400Y13494257D01*
X3677158Y13615670D02*
G01*
X3619500Y13534644D01*
X3706113Y13534644D01*
X3677158Y13615670D02*
G01*
X3677158Y13494257D01*
X3744213Y13615670D02*
G01*
X3744213Y13494257D01*
X3744213Y13494257D02*
G01*
X3813556Y13494257D01*
X3886200Y13615670D02*
G01*
X3868927Y13609828D01*
X3857243Y13592555D01*
X3851656Y13563600D01*
X3851656Y13546328D01*
X3857243Y13517371D01*
X3868927Y13500100D01*
X3886200Y13494257D01*
X3897629Y13494257D01*
X3915156Y13500100D01*
X3926586Y13517371D01*
X3932427Y13546328D01*
X3932427Y13563600D01*
X3926586Y13592555D01*
X3915156Y13609828D01*
X3897629Y13615670D01*
X3886200Y13615670D01*
X3970527Y13592555D02*
G01*
X3981958Y13598144D01*
X3999229Y13615670D01*
X3999229Y13494257D01*
X4089400Y13598144D02*
G01*
X4089400Y13494257D01*
X4037329Y13546328D02*
G01*
X4141470Y13546328D01*
X3149600Y13387070D02*
G01*
X3149600Y13265657D01*
X3149600Y13387070D02*
G01*
X3201670Y13387070D01*
X3218941Y13381228D01*
X3224529Y13375386D01*
X3230372Y13363955D01*
X3230372Y13346429D01*
X3224529Y13335000D01*
X3218941Y13329157D01*
X3201670Y13323570D01*
X3149600Y13323570D01*
X3314700Y13387070D02*
G01*
X3268472Y13265657D01*
X3314700Y13387070D02*
G01*
X3360927Y13265657D01*
X3285743Y13306044D02*
G01*
X3343656Y13306044D01*
X3450843Y13369544D02*
G01*
X3450843Y13265657D01*
X3399027Y13317728D02*
G01*
X3502913Y13317728D01*
X3541013Y13387070D02*
G01*
X3541013Y13265657D01*
X3541013Y13265657D02*
G01*
X3610356Y13265657D01*
X3648456Y13387070D02*
G01*
X3648456Y13265657D01*
X3648456Y13387070D02*
G01*
X3729227Y13265657D01*
X3729227Y13387070D02*
G01*
X3729227Y13265657D01*
X3813556Y13387070D02*
G01*
X3767327Y13265657D01*
X3813556Y13387070D02*
G01*
X3859529Y13265657D01*
X3784600Y13306044D02*
G01*
X3842258Y13306044D01*
D11*
X5119115Y13309600D02*
G01*
X5041138Y13309600D01*
X5025643Y13304520D01*
X5015229Y13294105D01*
X5010150Y13278357D01*
X5010150Y13267944D01*
X5015229Y13252450D01*
X5025643Y13242036D01*
X5041138Y13236955D01*
X5119115Y13236955D01*
X5119115Y13150595D02*
G01*
X5046472Y13202666D01*
X5046472Y13124687D01*
X5119115Y13150595D02*
G01*
X5010150Y13150595D01*
X5594604Y12354305D02*
G01*
X5586729Y12350242D01*
X5578602Y12342113D01*
X5574538Y12333986D01*
X5574538Y12317729D01*
X5578602Y12309855D01*
X5586729Y12301728D01*
X5594604Y12297663D01*
X5606795Y12293600D01*
X5627115Y12293600D01*
X5639054Y12297663D01*
X5647181Y12301728D01*
X5655309Y12309855D01*
X5659374Y12317729D01*
X5659374Y12333986D01*
X5655309Y12342113D01*
X5647181Y12350242D01*
X5639054Y12354305D01*
X5627115Y12354305D01*
X5627115Y12333986D02*
G01*
X5627115Y12354305D01*
X5574538Y12380976D02*
G01*
X5659374Y12380976D01*
X5574538Y12380976D02*
G01*
X5659374Y12437363D01*
X5574538Y12437363D02*
G01*
X5659374Y12437363D01*
X5574538Y12464034D02*
G01*
X5659374Y12464034D01*
X5574538Y12464034D02*
G01*
X5574538Y12492481D01*
X5578602Y12504420D01*
X5586729Y12512547D01*
X5594604Y12516612D01*
X5606795Y12520676D01*
X5627115Y12520676D01*
X5639054Y12516612D01*
X5647181Y12512547D01*
X5655309Y12504420D01*
X5659374Y12492481D01*
X5659374Y12464034D01*
X5823204Y12430505D02*
G01*
X5815329Y12426442D01*
X5807202Y12418313D01*
X5803138Y12410186D01*
X5803138Y12393929D01*
X5807202Y12386055D01*
X5815329Y12377928D01*
X5823204Y12373863D01*
X5835395Y12369800D01*
X5855715Y12369800D01*
X5867654Y12373863D01*
X5875781Y12377928D01*
X5883909Y12386055D01*
X5887974Y12393929D01*
X5887974Y12410186D01*
X5883909Y12418313D01*
X5875781Y12426442D01*
X5867654Y12430505D01*
X5803138Y12457176D02*
G01*
X5887974Y12457176D01*
X5803138Y12457176D02*
G01*
X5803138Y12509500D01*
X5843524Y12457176D02*
G01*
X5843524Y12489434D01*
X5887974Y12457176D02*
G01*
X5887974Y12509500D01*
X6043929Y12350242D02*
G01*
X6035802Y12342113D01*
X6031738Y12329921D01*
X6031738Y12313920D01*
X6035802Y12301728D01*
X6043929Y12293600D01*
X6051804Y12293600D01*
X6059931Y12297663D01*
X6063995Y12301728D01*
X6068059Y12309855D01*
X6076188Y12333986D01*
X6080252Y12342113D01*
X6084315Y12346178D01*
X6092190Y12350242D01*
X6104381Y12350242D01*
X6112509Y12342113D01*
X6116574Y12329921D01*
X6116574Y12313920D01*
X6112509Y12301728D01*
X6104381Y12293600D01*
X6051804Y12437363D02*
G01*
X6043929Y12433300D01*
X6035802Y12425426D01*
X6031738Y12417297D01*
X6031738Y12401042D01*
X6035802Y12392913D01*
X6043929Y12385039D01*
X6051804Y12380976D01*
X6063995Y12376912D01*
X6084315Y12376912D01*
X6096254Y12380976D01*
X6104381Y12385039D01*
X6112509Y12392913D01*
X6116574Y12401042D01*
X6116574Y12417297D01*
X6112509Y12425426D01*
X6104381Y12433300D01*
X6096254Y12437363D01*
X6031738Y12464034D02*
G01*
X6116574Y12464034D01*
X6031738Y12520676D02*
G01*
X6088379Y12464034D01*
X6068059Y12484354D02*
G01*
X6116574Y12520676D01*
X6311138Y12268200D02*
G01*
X6395974Y12268200D01*
X6311138Y12268200D02*
G01*
X6395974Y12300458D01*
X6311138Y12332970D02*
G01*
X6395974Y12300458D01*
X6311138Y12332970D02*
G01*
X6395974Y12332970D01*
X6311138Y12359639D02*
G01*
X6395974Y12359639D01*
X6323329Y12442697D02*
G01*
X6315202Y12434570D01*
X6311138Y12422631D01*
X6311138Y12406376D01*
X6315202Y12394184D01*
X6323329Y12386310D01*
X6331204Y12386310D01*
X6339331Y12390120D01*
X6343395Y12394184D01*
X6347459Y12402312D01*
X6355588Y12426695D01*
X6359652Y12434570D01*
X6363715Y12438634D01*
X6371590Y12442697D01*
X6383781Y12442697D01*
X6391909Y12434570D01*
X6395974Y12422631D01*
X6395974Y12406376D01*
X6391909Y12394184D01*
X6383781Y12386310D01*
X6311138Y12493752D02*
G01*
X6315202Y12485624D01*
X6323329Y12477495D01*
X6331204Y12473431D01*
X6343395Y12469368D01*
X6363715Y12469368D01*
X6375654Y12473431D01*
X6383781Y12477495D01*
X6391909Y12485624D01*
X6395974Y12493752D01*
X6395974Y12509754D01*
X6391909Y12517881D01*
X6383781Y12526010D01*
X6375654Y12530074D01*
X6363715Y12534137D01*
X6343395Y12534137D01*
X6331204Y12530074D01*
X6323329Y12526010D01*
X6315202Y12517881D01*
X6311138Y12509754D01*
X6311138Y12493752D01*
X5359400Y13221462D02*
G01*
X5391658Y13136626D01*
X5424170Y13221462D02*
G01*
X5391658Y13136626D01*
X5511291Y13201395D02*
G01*
X5507227Y13209270D01*
X5499100Y13217397D01*
X5491225Y13221462D01*
X5474970Y13221462D01*
X5466841Y13217397D01*
X5458713Y13209270D01*
X5454650Y13201395D01*
X5450840Y13189204D01*
X5450840Y13168884D01*
X5454650Y13156945D01*
X5458713Y13148818D01*
X5466841Y13140689D01*
X5474970Y13136626D01*
X5491225Y13136626D01*
X5499100Y13140689D01*
X5507227Y13148818D01*
X5511291Y13156945D01*
X5598668Y13201395D02*
G01*
X5594604Y13209270D01*
X5586475Y13217397D01*
X5578347Y13221462D01*
X5562345Y13221462D01*
X5554218Y13217397D01*
X5546090Y13209270D01*
X5542025Y13201395D01*
X5537961Y13189204D01*
X5537961Y13168884D01*
X5542025Y13156945D01*
X5546090Y13148818D01*
X5554218Y13140689D01*
X5562345Y13136626D01*
X5578347Y13136626D01*
X5586475Y13140689D01*
X5594604Y13148818D01*
X5598668Y13156945D01*
X5750306Y13201395D02*
G01*
X5746241Y13209270D01*
X5738113Y13217397D01*
X5729986Y13221462D01*
X5713729Y13221462D01*
X5705856Y13217397D01*
X5697727Y13209270D01*
X5693663Y13201395D01*
X5689600Y13189204D01*
X5689600Y13168884D01*
X5693663Y13156945D01*
X5697727Y13148818D01*
X5705856Y13140689D01*
X5713729Y13136626D01*
X5729986Y13136626D01*
X5738113Y13140689D01*
X5746241Y13148818D01*
X5750306Y13156945D01*
X5833363Y13209270D02*
G01*
X5825490Y13217397D01*
X5813297Y13221462D01*
X5797041Y13221462D01*
X5784850Y13217397D01*
X5776975Y13209270D01*
X5776975Y13201395D01*
X5781040Y13193268D01*
X5784850Y13189204D01*
X5792977Y13185139D01*
X5817361Y13177012D01*
X5825490Y13172947D01*
X5829300Y13168884D01*
X5833363Y13161010D01*
X5833363Y13148818D01*
X5825490Y13140689D01*
X5813297Y13136626D01*
X5797041Y13136626D01*
X5784850Y13140689D01*
X5776975Y13148818D01*
X5860034Y13221462D02*
G01*
X5860034Y13136626D01*
X5860034Y13221462D02*
G01*
X5916675Y13136626D01*
X5916675Y13221462D02*
G01*
X5916675Y13136626D01*
X5994400Y13221462D02*
G01*
X5994400Y13136626D01*
X5994400Y13221462D02*
G01*
X6026658Y13136626D01*
X6059170Y13221462D02*
G01*
X6026658Y13136626D01*
X6059170Y13221462D02*
G01*
X6059170Y13136626D01*
X6109970Y13221462D02*
G01*
X6101841Y13217397D01*
X6093713Y13209270D01*
X6089650Y13201395D01*
X6085840Y13189204D01*
X6085840Y13168884D01*
X6089650Y13156945D01*
X6093713Y13148818D01*
X6101841Y13140689D01*
X6109970Y13136626D01*
X6126225Y13136626D01*
X6134100Y13140689D01*
X6142227Y13148818D01*
X6146291Y13156945D01*
X6150356Y13168884D01*
X6150356Y13189204D01*
X6146291Y13201395D01*
X6142227Y13209270D01*
X6134100Y13217397D01*
X6126225Y13221462D01*
X6109970Y13221462D01*
X6233668Y13209270D02*
G01*
X6225540Y13217397D01*
X6213347Y13221462D01*
X6197345Y13221462D01*
X6185154Y13217397D01*
X6177025Y13209270D01*
X6177025Y13201395D01*
X6181090Y13193268D01*
X6185154Y13189204D01*
X6193281Y13185139D01*
X6217411Y13177012D01*
X6225540Y13172947D01*
X6229604Y13168884D01*
X6233668Y13161010D01*
X6233668Y13148818D01*
X6225540Y13140689D01*
X6213347Y13136626D01*
X6197345Y13136626D01*
X6185154Y13140689D01*
X6177025Y13148818D01*
X6260338Y13221462D02*
G01*
X6260338Y13136626D01*
X6350000Y13221462D02*
G01*
X6350000Y13136626D01*
X6376670Y13221462D02*
G01*
X6376670Y13136626D01*
X6376670Y13221462D02*
G01*
X6412991Y13221462D01*
X6425184Y13217397D01*
X6429247Y13213334D01*
X6433311Y13205460D01*
X6433311Y13197331D01*
X6429247Y13189204D01*
X6425184Y13185139D01*
X6412991Y13181076D01*
X6376670Y13181076D01*
X6404863Y13181076D02*
G01*
X6433311Y13136626D01*
X6484111Y13221462D02*
G01*
X6475984Y13217397D01*
X6468109Y13209270D01*
X6464045Y13201395D01*
X6459981Y13189204D01*
X6459981Y13168884D01*
X6464045Y13156945D01*
X6468109Y13148818D01*
X6475984Y13140689D01*
X6484111Y13136626D01*
X6500368Y13136626D01*
X6508495Y13140689D01*
X6516370Y13148818D01*
X6520434Y13156945D01*
X6524497Y13168884D01*
X6524497Y13189204D01*
X6520434Y13201395D01*
X6516370Y13209270D01*
X6508495Y13217397D01*
X6500368Y13221462D01*
X6484111Y13221462D01*
X6496304Y13152881D02*
G01*
X6520434Y13128497D01*
D10*
X5511800Y13615670D02*
G01*
X5511800Y13494257D01*
X5511800Y13615670D02*
G01*
X5592572Y13494257D01*
X5592572Y13615670D02*
G01*
X5592572Y13494257D01*
X5630672Y13615670D02*
G01*
X5630672Y13494257D01*
X5630672Y13615670D02*
G01*
X5682741Y13615670D01*
X5700013Y13609828D01*
X5705856Y13603986D01*
X5711443Y13592555D01*
X5711443Y13580871D01*
X5705856Y13569442D01*
X5700013Y13563600D01*
X5682741Y13557757D01*
X5630672Y13557757D01*
X5671058Y13557757D02*
G01*
X5711443Y13494257D01*
X5749543Y13615670D02*
G01*
X5749543Y13494257D01*
X5749543Y13615670D02*
G01*
X5824727Y13615670D01*
X5749543Y13557757D02*
G01*
X5795772Y13557757D01*
X5868670Y13586713D02*
G01*
X5868670Y13592555D01*
X5874258Y13603986D01*
X5880100Y13609828D01*
X5891529Y13615670D01*
X5914643Y13615670D01*
X5926327Y13609828D01*
X5932170Y13603986D01*
X5937758Y13592555D01*
X5937758Y13580871D01*
X5932170Y13569442D01*
X5920486Y13552170D01*
X5862827Y13494257D01*
X5943600Y13494257D01*
X6039358Y13615670D02*
G01*
X5981700Y13534644D01*
X6068313Y13534644D01*
X6039358Y13615670D02*
G01*
X6039358Y13494257D01*
X6106413Y13615670D02*
G01*
X6106413Y13494257D01*
X6106413Y13494257D02*
G01*
X6175756Y13494257D01*
X6248400Y13615670D02*
G01*
X6231127Y13609828D01*
X6219443Y13592555D01*
X6213856Y13563600D01*
X6213856Y13546328D01*
X6219443Y13517371D01*
X6231127Y13500100D01*
X6248400Y13494257D01*
X6259829Y13494257D01*
X6277356Y13500100D01*
X6288786Y13517371D01*
X6294627Y13546328D01*
X6294627Y13563600D01*
X6288786Y13592555D01*
X6277356Y13609828D01*
X6259829Y13615670D01*
X6248400Y13615670D01*
X6332727Y13592555D02*
G01*
X6344158Y13598144D01*
X6361429Y13615670D01*
X6361429Y13494257D01*
X6451600Y13598144D02*
G01*
X6451600Y13494257D01*
X6399529Y13546328D02*
G01*
X6503670Y13546328D01*
X5511800Y13387070D02*
G01*
X5511800Y13265657D01*
X5511800Y13387070D02*
G01*
X5563870Y13387070D01*
X5581141Y13381228D01*
X5586729Y13375386D01*
X5592572Y13363955D01*
X5592572Y13346429D01*
X5586729Y13335000D01*
X5581141Y13329157D01*
X5563870Y13323570D01*
X5511800Y13323570D01*
X5676900Y13387070D02*
G01*
X5630672Y13265657D01*
X5676900Y13387070D02*
G01*
X5723127Y13265657D01*
X5647943Y13306044D02*
G01*
X5705856Y13306044D01*
X5813043Y13369544D02*
G01*
X5813043Y13265657D01*
X5761227Y13317728D02*
G01*
X5865113Y13317728D01*
X5903213Y13387070D02*
G01*
X5903213Y13265657D01*
X5903213Y13265657D02*
G01*
X5972556Y13265657D01*
X6010656Y13387070D02*
G01*
X6010656Y13265657D01*
X6010656Y13387070D02*
G01*
X6091427Y13265657D01*
X6091427Y13387070D02*
G01*
X6091427Y13265657D01*
X6175756Y13387070D02*
G01*
X6129527Y13265657D01*
X6175756Y13387070D02*
G01*
X6221729Y13265657D01*
X6146800Y13306044D02*
G01*
X6204458Y13306044D01*
D11*
X6566971Y2031992D02*
G01*
X6488993Y2031992D01*
X6473499Y2026912D01*
X6463085Y2016498D01*
X6457751Y2000750D01*
X6457751Y1990336D01*
X6463085Y1974842D01*
X6473499Y1964428D01*
X6488993Y1959348D01*
X6566971Y1959348D01*
X6566971Y1862574D02*
G01*
X6566971Y1914644D01*
X6520235Y1919724D01*
X6525315Y1914644D01*
X6530649Y1898896D01*
X6530649Y1883402D01*
X6525315Y1867908D01*
X6514901Y1857494D01*
X6499407Y1852160D01*
X6488993Y1852160D01*
X6473499Y1857494D01*
X6463085Y1867908D01*
X6457751Y1883402D01*
X6457751Y1898896D01*
X6463085Y1914644D01*
X6468165Y1919724D01*
X6478579Y1925058D01*
D10*
X1573784Y1485900D02*
G01*
X1430528Y1485900D01*
X1573784Y1485900D02*
G01*
X1573784Y1424431D01*
X1566926Y1404112D01*
X1560068Y1397254D01*
X1546605Y1390395D01*
X1532889Y1390395D01*
X1519173Y1397254D01*
X1512315Y1404112D01*
X1505457Y1424431D01*
X1505457Y1485900D02*
G01*
X1505457Y1424431D01*
X1498854Y1404112D01*
X1491995Y1397254D01*
X1478279Y1390395D01*
X1457960Y1390395D01*
X1444244Y1397254D01*
X1437386Y1404112D01*
X1430528Y1424431D01*
X1430528Y1485900D01*
X1573784Y1304544D02*
G01*
X1566926Y1318260D01*
X1553210Y1331721D01*
X1539747Y1338579D01*
X1519173Y1345437D01*
X1485137Y1345437D01*
X1464563Y1338579D01*
X1451102Y1331721D01*
X1437386Y1318260D01*
X1430528Y1304544D01*
X1430528Y1277365D01*
X1437386Y1263650D01*
X1451102Y1249934D01*
X1464563Y1243076D01*
X1485137Y1236471D01*
X1519173Y1236471D01*
X1539747Y1243076D01*
X1553210Y1249934D01*
X1566926Y1263650D01*
X1573784Y1277365D01*
X1573784Y1304544D01*
X1573784Y1150365D02*
G01*
X1566926Y1164081D01*
X1553210Y1177797D01*
X1539747Y1184655D01*
X1519173Y1191260D01*
X1485137Y1191260D01*
X1464563Y1184655D01*
X1451102Y1177797D01*
X1437386Y1164081D01*
X1430528Y1150365D01*
X1430528Y1123187D01*
X1437386Y1109471D01*
X1451102Y1096010D01*
X1464563Y1089152D01*
X1485137Y1082294D01*
X1519173Y1082294D01*
X1539747Y1089152D01*
X1553210Y1096010D01*
X1566926Y1109471D01*
X1573784Y1123187D01*
X1573784Y1150365D01*
X1573784Y989584D02*
G01*
X1430528Y989584D01*
X1573784Y1037336D02*
G01*
X1573784Y941831D01*
X1522984Y3000298D02*
G01*
X1379728Y3000298D01*
X1522984Y3000298D02*
G01*
X1522984Y2938830D01*
X1516126Y2918256D01*
X1509268Y2911652D01*
X1495805Y2904794D01*
X1482089Y2904794D01*
X1468373Y2911652D01*
X1461515Y2918256D01*
X1454657Y2938830D01*
X1454657Y3000298D01*
X1454657Y2952546D02*
G01*
X1379728Y2904794D01*
X1502410Y2764332D02*
G01*
X1516126Y2778048D01*
X1522984Y2798368D01*
X1522984Y2825546D01*
X1516126Y2846120D01*
X1502410Y2859836D01*
X1488947Y2859836D01*
X1475231Y2852978D01*
X1468373Y2846120D01*
X1461515Y2832404D01*
X1448054Y2791510D01*
X1441195Y2778048D01*
X1434337Y2771190D01*
X1420621Y2764332D01*
X1400302Y2764332D01*
X1386586Y2778048D01*
X1379728Y2798368D01*
X1379728Y2825546D01*
X1386586Y2846120D01*
X1400302Y2859836D01*
X1522984Y2671622D02*
G01*
X1379728Y2671622D01*
X1522984Y2719374D02*
G01*
X1522984Y2623870D01*
X1208278Y2286000D02*
G01*
X1069847Y2286000D01*
X1042162Y2276855D01*
X1023620Y2258313D01*
X1014476Y2230628D01*
X1014476Y2212086D01*
X1023620Y2184400D01*
X1042162Y2165857D01*
X1069847Y2156713D01*
X1208278Y2156713D01*
X1180592Y1966468D02*
G01*
X1199134Y1985010D01*
X1208278Y2012695D01*
X1208278Y2049526D01*
X1199134Y2077212D01*
X1180592Y2095754D01*
X1162050Y2095754D01*
X1143762Y2086610D01*
X1134363Y2077212D01*
X1125220Y2058670D01*
X1106678Y2003297D01*
X1097534Y1985010D01*
X1088389Y1975612D01*
X1069847Y1966468D01*
X1042162Y1966468D01*
X1023620Y1985010D01*
X1014476Y2012695D01*
X1014476Y2049526D01*
X1023620Y2077212D01*
X1042162Y2095754D01*
X1208278Y1905507D02*
G01*
X1014476Y1905507D01*
X1208278Y1905507D02*
G01*
X1208278Y1822450D01*
X1199134Y1794510D01*
X1189989Y1785365D01*
X1171447Y1776221D01*
X1152905Y1776221D01*
X1134363Y1785365D01*
X1125220Y1794510D01*
X1116076Y1822450D01*
X1116076Y1905507D02*
G01*
X1116076Y1822450D01*
X1106678Y1794510D01*
X1097534Y1785365D01*
X1078992Y1776221D01*
X1051305Y1776221D01*
X1032763Y1785365D01*
X1023620Y1794510D01*
X1014476Y1822450D01*
X1014476Y1905507D01*
X4891277Y2463850D02*
G01*
X4697475Y2463850D01*
X4891277Y2463850D02*
G01*
X4891277Y2343708D01*
X4799075Y2463850D02*
G01*
X4799075Y2389936D01*
X4697475Y2463850D02*
G01*
X4697475Y2343708D01*
X4863591Y2153462D02*
G01*
X4882134Y2172004D01*
X4891277Y2199690D01*
X4891277Y2236520D01*
X4882134Y2264206D01*
X4863591Y2282748D01*
X4845050Y2282748D01*
X4826761Y2273604D01*
X4817363Y2264206D01*
X4808220Y2245918D01*
X4789677Y2190292D01*
X4780534Y2172004D01*
X4771390Y2162606D01*
X4752847Y2153462D01*
X4725161Y2153462D01*
X4706620Y2172004D01*
X4697475Y2199690D01*
X4697475Y2236520D01*
X4706620Y2264206D01*
X4725161Y2282748D01*
X4891277Y2092502D02*
G01*
X4697475Y2092502D01*
X4891277Y2092502D02*
G01*
X4891277Y2009444D01*
X4882134Y1981758D01*
X4872990Y1972360D01*
X4854447Y1963216D01*
X4826761Y1963216D01*
X4808220Y1972360D01*
X4799075Y1981758D01*
X4789677Y2009444D01*
X4789677Y2092502D01*
X4891277Y1883714D02*
G01*
X4891277Y1782114D01*
X4817363Y1837486D01*
X4817363Y1809800D01*
X4808220Y1791512D01*
X4799075Y1782114D01*
X4771390Y1772970D01*
X4752847Y1772970D01*
X4725161Y1782114D01*
X4706620Y1800656D01*
X4697475Y1828342D01*
X4697475Y1856028D01*
X4706620Y1883714D01*
X4715763Y1893112D01*
X4734306Y1902256D01*
X4845050Y1702612D02*
G01*
X4854447Y1702612D01*
X4872990Y1693468D01*
X4882134Y1684324D01*
X4891277Y1665782D01*
X4891277Y1628952D01*
X4882134Y1610410D01*
X4872990Y1601012D01*
X4854447Y1591868D01*
X4835906Y1591868D01*
X4817363Y1601012D01*
X4789677Y1619554D01*
X4697475Y1712010D01*
X4697475Y1582724D01*
D11*
X902207Y10615421D02*
G01*
X912621Y10620755D01*
X923036Y10631170D01*
X928115Y10641329D01*
X928115Y10662158D01*
X923036Y10672571D01*
X912621Y10682986D01*
X902207Y10688320D01*
X886460Y10693400D01*
X860552Y10693400D01*
X845057Y10688320D01*
X834644Y10682986D01*
X824229Y10672571D01*
X819150Y10662158D01*
X819150Y10641329D01*
X824229Y10631170D01*
X834644Y10620755D01*
X845057Y10615421D01*
X928115Y10555224D02*
G01*
X923036Y10570718D01*
X912621Y10576052D01*
X902207Y10576052D01*
X891794Y10570718D01*
X886460Y10560304D01*
X881379Y10539729D01*
X876300Y10523981D01*
X865886Y10513568D01*
X855471Y10508487D01*
X839723Y10508487D01*
X829310Y10513568D01*
X824229Y10518902D01*
X819150Y10534395D01*
X819150Y10555224D01*
X824229Y10570718D01*
X829310Y10576052D01*
X839723Y10581131D01*
X855471Y10581131D01*
X865886Y10576052D01*
X876300Y10565637D01*
X881379Y10549889D01*
X886460Y10529315D01*
X891794Y10518902D01*
X902207Y10513568D01*
X912621Y10513568D01*
X923036Y10518902D01*
X928115Y10534395D01*
X928115Y10555224D01*
X7099808Y10590021D02*
G01*
X7110222Y10595355D01*
X7120636Y10605770D01*
X7125715Y10615929D01*
X7125715Y10636758D01*
X7120636Y10647171D01*
X7110222Y10657586D01*
X7099808Y10662920D01*
X7084059Y10668000D01*
X7058152Y10668000D01*
X7042658Y10662920D01*
X7032243Y10657586D01*
X7021829Y10647171D01*
X7016750Y10636758D01*
X7016750Y10615929D01*
X7021829Y10605770D01*
X7032243Y10595355D01*
X7042658Y10590021D01*
X7089393Y10488168D02*
G01*
X7073900Y10493502D01*
X7063486Y10503915D01*
X7058152Y10519410D01*
X7058152Y10524489D01*
X7063486Y10540237D01*
X7073900Y10550652D01*
X7089393Y10555731D01*
X7094474Y10555731D01*
X7110222Y10550652D01*
X7120636Y10540237D01*
X7125715Y10524489D01*
X7125715Y10519410D01*
X7120636Y10503915D01*
X7110222Y10493502D01*
X7089393Y10488168D01*
X7063486Y10488168D01*
X7037324Y10493502D01*
X7021829Y10503915D01*
X7016750Y10519410D01*
X7016750Y10529824D01*
X7021829Y10545318D01*
X7032243Y10550652D01*
X6148583Y8547615D02*
G01*
X6143249Y8558029D01*
X6132835Y8568443D01*
X6122675Y8573523D01*
X6101847Y8573523D01*
X6091433Y8568443D01*
X6081019Y8558029D01*
X6075685Y8547615D01*
X6070605Y8531867D01*
X6070605Y8505959D01*
X6075685Y8490465D01*
X6081019Y8480051D01*
X6091433Y8469637D01*
X6101847Y8464557D01*
X6122675Y8464557D01*
X6132835Y8469637D01*
X6143249Y8480051D01*
X6148583Y8490465D01*
X6260851Y8547615D02*
G01*
X6255517Y8558029D01*
X6245103Y8568443D01*
X6234689Y8573523D01*
X6214115Y8573523D01*
X6203701Y8568443D01*
X6193287Y8558029D01*
X6187953Y8547615D01*
X6182873Y8531867D01*
X6182873Y8505959D01*
X6187953Y8490465D01*
X6193287Y8480051D01*
X6203701Y8469637D01*
X6214115Y8464557D01*
X6234689Y8464557D01*
X6245103Y8469637D01*
X6255517Y8480051D01*
X6260851Y8490465D01*
X6300221Y8547615D02*
G01*
X6300221Y8552695D01*
X6305555Y8563109D01*
X6310635Y8568443D01*
X6321049Y8573523D01*
X6341877Y8573523D01*
X6352291Y8568443D01*
X6357371Y8563109D01*
X6362705Y8552695D01*
X6362705Y8542281D01*
X6357371Y8531867D01*
X6346957Y8516373D01*
X6295141Y8464557D01*
X6367785Y8464557D01*
X1766315Y6102350D02*
G01*
X1657350Y6102350D01*
X1766315Y6102350D02*
G01*
X1766315Y6066028D01*
X1761236Y6050279D01*
X1750821Y6040120D01*
X1740407Y6034786D01*
X1724660Y6029705D01*
X1698752Y6029705D01*
X1683257Y6034786D01*
X1672844Y6040120D01*
X1662429Y6050279D01*
X1657350Y6066028D01*
X1657350Y6102350D01*
X1745487Y5995415D02*
G01*
X1750821Y5985002D01*
X1766315Y5969254D01*
X1657350Y5969254D01*
X3073582Y399321D02*
G01*
X3073582Y316263D01*
X3068248Y300515D01*
X3063168Y295435D01*
X3052754Y290355D01*
X3042340Y290355D01*
X3031926Y295435D01*
X3026592Y300515D01*
X3021512Y316263D01*
X3021512Y326677D01*
X3107872Y378493D02*
G01*
X3118032Y383827D01*
X3133780Y399321D01*
X3133780Y290355D01*
X2209800Y5804915D02*
G01*
X2209800Y5695950D01*
X2282443Y5804915D02*
G01*
X2209800Y5732271D01*
X2235708Y5758179D02*
G01*
X2282443Y5695950D01*
X2316734Y5804915D02*
G01*
X2316734Y5695950D01*
X2316734Y5804915D02*
G01*
X2384297Y5804915D01*
X2316734Y5753100D02*
G01*
X2358390Y5753100D01*
X2316734Y5695950D02*
G01*
X2384297Y5695950D01*
X2418588Y5804915D02*
G01*
X2460243Y5753100D01*
X2460243Y5695950D01*
X2501900Y5804915D02*
G01*
X2460243Y5753100D01*
X2536190Y5784087D02*
G01*
X2546350Y5789421D01*
X2562097Y5804915D01*
X2562097Y5695950D01*
X3632200Y5804915D02*
G01*
X3632200Y5695950D01*
X3704843Y5804915D02*
G01*
X3632200Y5732271D01*
X3658108Y5758179D02*
G01*
X3704843Y5695950D01*
X3739134Y5804915D02*
G01*
X3739134Y5695950D01*
X3739134Y5804915D02*
G01*
X3806697Y5804915D01*
X3739134Y5753100D02*
G01*
X3780790Y5753100D01*
X3739134Y5695950D02*
G01*
X3806697Y5695950D01*
X3840988Y5804915D02*
G01*
X3882643Y5753100D01*
X3882643Y5695950D01*
X3924300Y5804915D02*
G01*
X3882643Y5753100D01*
X3963670Y5779007D02*
G01*
X3963670Y5784087D01*
X3968750Y5794502D01*
X3974084Y5799836D01*
X3984497Y5804915D01*
X4005325Y5804915D01*
X4015740Y5799836D01*
X4020820Y5794502D01*
X4025900Y5784087D01*
X4025900Y5773673D01*
X4020820Y5763260D01*
X4010406Y5747765D01*
X3958590Y5695950D01*
X4031234Y5695950D01*
X5054600Y5804915D02*
G01*
X5054600Y5695950D01*
X5127243Y5804915D02*
G01*
X5054600Y5732271D01*
X5080508Y5758179D02*
G01*
X5127243Y5695950D01*
X5161534Y5804915D02*
G01*
X5161534Y5695950D01*
X5161534Y5804915D02*
G01*
X5229097Y5804915D01*
X5161534Y5753100D02*
G01*
X5203190Y5753100D01*
X5161534Y5695950D02*
G01*
X5229097Y5695950D01*
X5263388Y5804915D02*
G01*
X5305043Y5753100D01*
X5305043Y5695950D01*
X5346700Y5804915D02*
G01*
X5305043Y5753100D01*
X5391150Y5804915D02*
G01*
X5448300Y5804915D01*
X5417311Y5763260D01*
X5432806Y5763260D01*
X5443220Y5758179D01*
X5448300Y5753100D01*
X5453634Y5737352D01*
X5453634Y5726937D01*
X5448300Y5711444D01*
X5438140Y5701029D01*
X5422391Y5695950D01*
X5406897Y5695950D01*
X5391150Y5701029D01*
X5386070Y5706110D01*
X5380990Y5716523D01*
X1131315Y11684000D02*
G01*
X1022350Y11684000D01*
X1022350Y11684000D02*
G01*
X1022350Y11621770D01*
X1131315Y11587479D02*
G01*
X1022350Y11587479D01*
X1131315Y11587479D02*
G01*
X1131315Y11519915D01*
X1079500Y11587479D02*
G01*
X1079500Y11545824D01*
X1022350Y11587479D02*
G01*
X1022350Y11519915D01*
X1131315Y11485626D02*
G01*
X1022350Y11485626D01*
X1131315Y11485626D02*
G01*
X1131315Y11449050D01*
X1126236Y11433555D01*
X1115821Y11423142D01*
X1105407Y11418062D01*
X1089660Y11412728D01*
X1063752Y11412728D01*
X1048257Y11418062D01*
X1037844Y11423142D01*
X1027429Y11433555D01*
X1022350Y11449050D01*
X1022350Y11485626D01*
X1110487Y11378437D02*
G01*
X1115821Y11368024D01*
X1131315Y11352529D01*
X1022350Y11352529D01*
X6719315Y11709400D02*
G01*
X6610350Y11709400D01*
X6610350Y11709400D02*
G01*
X6610350Y11647170D01*
X6719315Y11612879D02*
G01*
X6610350Y11612879D01*
X6719315Y11612879D02*
G01*
X6719315Y11545315D01*
X6667500Y11612879D02*
G01*
X6667500Y11571224D01*
X6610350Y11612879D02*
G01*
X6610350Y11545315D01*
X6719315Y11511026D02*
G01*
X6610350Y11511026D01*
X6719315Y11511026D02*
G01*
X6719315Y11474450D01*
X6714236Y11458955D01*
X6703822Y11448542D01*
X6693408Y11443462D01*
X6677659Y11438128D01*
X6651752Y11438128D01*
X6636258Y11443462D01*
X6625843Y11448542D01*
X6615429Y11458955D01*
X6610350Y11474450D01*
X6610350Y11511026D01*
X6693408Y11398758D02*
G01*
X6698488Y11398758D01*
X6708902Y11393424D01*
X6714236Y11388344D01*
X6719315Y11377929D01*
X6719315Y11357102D01*
X6714236Y11346687D01*
X6708902Y11341608D01*
X6698488Y11336274D01*
X6688074Y11336274D01*
X6677659Y11341608D01*
X6662165Y11352021D01*
X6610350Y11403837D01*
X6610350Y11331194D01*
X2469641Y10681715D02*
G01*
X2459227Y10676636D01*
X2448813Y10666221D01*
X2443479Y10655808D01*
X2438400Y10640060D01*
X2438400Y10614152D01*
X2443479Y10598658D01*
X2448813Y10588244D01*
X2459227Y10577829D01*
X2469641Y10572750D01*
X2490470Y10572750D01*
X2500629Y10577829D01*
X2511043Y10588244D01*
X2516377Y10598658D01*
X2521458Y10614152D01*
X2521458Y10640060D01*
X2516377Y10655808D01*
X2511043Y10666221D01*
X2500629Y10676636D01*
X2490470Y10681715D01*
X2469641Y10681715D01*
X2555747Y10681715D02*
G01*
X2555747Y10572750D01*
X2555747Y10572750D02*
G01*
X2618231Y10572750D01*
X2652522Y10681715D02*
G01*
X2652522Y10572750D01*
X2652522Y10681715D02*
G01*
X2720086Y10681715D01*
X2652522Y10629900D02*
G01*
X2693924Y10629900D01*
X2652522Y10572750D02*
G01*
X2720086Y10572750D01*
X2754375Y10681715D02*
G01*
X2754375Y10572750D01*
X2754375Y10681715D02*
G01*
X2790697Y10681715D01*
X2806191Y10676636D01*
X2816606Y10666221D01*
X2821940Y10655808D01*
X2827020Y10640060D01*
X2827020Y10614152D01*
X2821940Y10598658D01*
X2816606Y10588244D01*
X2806191Y10577829D01*
X2790697Y10572750D01*
X2754375Y10572750D01*
D10*
X3082036Y9415779D02*
G01*
X3082036Y9294621D01*
X3120136Y9415779D02*
G01*
X3120136Y9294621D01*
X3244850Y9387078D02*
G01*
X3239008Y9398508D01*
X3227577Y9409937D01*
X3215893Y9415779D01*
X3192779Y9415779D01*
X3181350Y9409937D01*
X3169665Y9398508D01*
X3164077Y9387078D01*
X3158236Y9369552D01*
X3158236Y9340850D01*
X3164077Y9323578D01*
X3169665Y9311894D01*
X3181350Y9300463D01*
X3192779Y9294621D01*
X3215893Y9294621D01*
X3227577Y9300463D01*
X3239008Y9311894D01*
X3244850Y9323578D01*
X3282950Y9346437D02*
G01*
X3386836Y9346437D01*
X3511550Y9387078D02*
G01*
X3505708Y9398508D01*
X3494277Y9409937D01*
X3482593Y9415779D01*
X3459479Y9415779D01*
X3448050Y9409937D01*
X3436365Y9398508D01*
X3430777Y9387078D01*
X3424936Y9369552D01*
X3424936Y9340850D01*
X3430777Y9323578D01*
X3436365Y9311894D01*
X3448050Y9300463D01*
X3459479Y9294621D01*
X3482593Y9294621D01*
X3494277Y9300463D01*
X3505708Y9311894D01*
X3511550Y9323578D01*
X3578606Y9375394D02*
G01*
X3566922Y9369552D01*
X3555491Y9358121D01*
X3549650Y9340850D01*
X3549650Y9329165D01*
X3555491Y9311894D01*
X3566922Y9300463D01*
X3578606Y9294621D01*
X3595877Y9294621D01*
X3607308Y9300463D01*
X3618991Y9311894D01*
X3624579Y9329165D01*
X3624579Y9340850D01*
X3618991Y9358121D01*
X3607308Y9369552D01*
X3595877Y9375394D01*
X3578606Y9375394D01*
X3662679Y9375394D02*
G01*
X3662679Y9294621D01*
X3662679Y9352279D02*
G01*
X3680206Y9369552D01*
X3691636Y9375394D01*
X3708908Y9375394D01*
X3720591Y9369552D01*
X3726179Y9352279D01*
X3726179Y9294621D01*
X3764279Y9375394D02*
G01*
X3764279Y9294621D01*
X3764279Y9352279D02*
G01*
X3781806Y9369552D01*
X3793236Y9375394D01*
X3810508Y9375394D01*
X3822191Y9369552D01*
X3827779Y9352279D01*
X3827779Y9294621D01*
X3865879Y9340850D02*
G01*
X3935222Y9340850D01*
X3935222Y9352279D01*
X3929379Y9363963D01*
X3923791Y9369552D01*
X3912108Y9375394D01*
X3894836Y9375394D01*
X3883406Y9369552D01*
X3871722Y9358121D01*
X3865879Y9340850D01*
X3865879Y9329165D01*
X3871722Y9311894D01*
X3883406Y9300463D01*
X3894836Y9294621D01*
X3912108Y9294621D01*
X3923791Y9300463D01*
X3935222Y9311894D01*
X4042663Y9358121D02*
G01*
X4030979Y9369552D01*
X4019550Y9375394D01*
X4002277Y9375394D01*
X3990593Y9369552D01*
X3979163Y9358121D01*
X3973322Y9340850D01*
X3973322Y9329165D01*
X3979163Y9311894D01*
X3990593Y9300463D01*
X4002277Y9294621D01*
X4019550Y9294621D01*
X4030979Y9300463D01*
X4042663Y9311894D01*
X4098036Y9415779D02*
G01*
X4098036Y9317736D01*
X4103877Y9300463D01*
X4115308Y9294621D01*
X4126991Y9294621D01*
X4080763Y9375394D02*
G01*
X4121150Y9375394D01*
X4193793Y9375394D02*
G01*
X4182363Y9369552D01*
X4170679Y9358121D01*
X4165091Y9340850D01*
X4165091Y9329165D01*
X4170679Y9311894D01*
X4182363Y9300463D01*
X4193793Y9294621D01*
X4211065Y9294621D01*
X4222750Y9300463D01*
X4234179Y9311894D01*
X4240022Y9329165D01*
X4240022Y9340850D01*
X4234179Y9358121D01*
X4222750Y9369552D01*
X4211065Y9375394D01*
X4193793Y9375394D01*
X4278122Y9375394D02*
G01*
X4278122Y9294621D01*
X4278122Y9340850D02*
G01*
X4283963Y9358121D01*
X4295393Y9369552D01*
X4307077Y9375394D01*
X4324350Y9375394D01*
X3342060Y9645175D02*
G01*
X3324788Y9639333D01*
X3313358Y9622061D01*
X3307516Y9593105D01*
X3307516Y9575833D01*
X3313358Y9547131D01*
X3324788Y9529605D01*
X3342060Y9524017D01*
X3353744Y9524017D01*
X3371016Y9529605D01*
X3382446Y9547131D01*
X3388288Y9575833D01*
X3388288Y9593105D01*
X3382446Y9622061D01*
X3371016Y9639333D01*
X3353744Y9645175D01*
X3342060Y9645175D01*
X3432230Y9552719D02*
G01*
X3426388Y9547131D01*
X3432230Y9541289D01*
X3438072Y9547131D01*
X3432230Y9552719D01*
X3551102Y9604789D02*
G01*
X3545260Y9587517D01*
X3533830Y9575833D01*
X3516558Y9570245D01*
X3510716Y9570245D01*
X3493444Y9575833D01*
X3481760Y9587517D01*
X3476172Y9604789D01*
X3476172Y9610631D01*
X3481760Y9627903D01*
X3493444Y9639333D01*
X3510716Y9645175D01*
X3516558Y9645175D01*
X3533830Y9639333D01*
X3545260Y9627903D01*
X3551102Y9604789D01*
X3551102Y9575833D01*
X3545260Y9547131D01*
X3533830Y9529605D01*
X3516558Y9524017D01*
X3504874Y9524017D01*
X3487602Y9529605D01*
X3481760Y9541289D01*
X3658544Y9627903D02*
G01*
X3652702Y9639333D01*
X3635430Y9645175D01*
X3623746Y9645175D01*
X3606474Y9639333D01*
X3595044Y9622061D01*
X3589202Y9593105D01*
X3589202Y9564403D01*
X3595044Y9541289D01*
X3606474Y9529605D01*
X3623746Y9524017D01*
X3629588Y9524017D01*
X3646860Y9529605D01*
X3658544Y9541289D01*
X3664386Y9558561D01*
X3664386Y9564403D01*
X3658544Y9581675D01*
X3646860Y9593105D01*
X3629588Y9598947D01*
X3623746Y9598947D01*
X3606474Y9593105D01*
X3595044Y9581675D01*
X3589202Y9564403D01*
X3713916Y9662447D02*
G01*
X3713916Y9627903D01*
X3775130Y9645175D02*
G01*
X3763446Y9639333D01*
X3752016Y9627903D01*
X3746174Y9616219D01*
X3740586Y9598947D01*
X3740586Y9570245D01*
X3746174Y9552719D01*
X3752016Y9541289D01*
X3763446Y9529605D01*
X3775130Y9524017D01*
X3798244Y9524017D01*
X3809674Y9529605D01*
X3821358Y9541289D01*
X3826946Y9552719D01*
X3832788Y9570245D01*
X3832788Y9598947D01*
X3826946Y9616219D01*
X3821358Y9627903D01*
X3809674Y9639333D01*
X3798244Y9645175D01*
X3775130Y9645175D01*
X3870888Y9645175D02*
G01*
X3870888Y9524017D01*
X3870888Y9524017D02*
G01*
X3940230Y9524017D01*
X3978330Y9645175D02*
G01*
X3978330Y9524017D01*
X3978330Y9645175D02*
G01*
X4053260Y9645175D01*
X3978330Y9587517D02*
G01*
X4024558Y9587517D01*
X3978330Y9524017D02*
G01*
X4053260Y9524017D01*
X4091360Y9645175D02*
G01*
X4091360Y9524017D01*
X4091360Y9645175D02*
G01*
X4131746Y9645175D01*
X4149272Y9639333D01*
X4160702Y9627903D01*
X4166544Y9616219D01*
X4172386Y9598947D01*
X4172386Y9570245D01*
X4166544Y9552719D01*
X4160702Y9541289D01*
X4149272Y9529605D01*
X4131746Y9524017D01*
X4091360Y9524017D01*
D11*
X1698244Y11428221D02*
G01*
X1687829Y11438636D01*
X1672336Y11443715D01*
X1651507Y11443715D01*
X1636013Y11438636D01*
X1625600Y11428221D01*
X1625600Y11417808D01*
X1630679Y11407394D01*
X1636013Y11402060D01*
X1646428Y11396979D01*
X1677670Y11386565D01*
X1687829Y11381486D01*
X1693163Y11376152D01*
X1698244Y11365737D01*
X1698244Y11350244D01*
X1687829Y11339829D01*
X1672336Y11334750D01*
X1651507Y11334750D01*
X1636013Y11339829D01*
X1625600Y11350244D01*
X1732534Y11443715D02*
G01*
X1758695Y11334750D01*
X1784604Y11443715D02*
G01*
X1758695Y11334750D01*
X1784604Y11443715D02*
G01*
X1810512Y11334750D01*
X1836420Y11443715D02*
G01*
X1810512Y11334750D01*
X1870710Y11422887D02*
G01*
X1881123Y11428221D01*
X1896871Y11443715D01*
X1896871Y11334750D01*
X4695443Y11428221D02*
G01*
X4685029Y11438636D01*
X4669536Y11443715D01*
X4648708Y11443715D01*
X4633213Y11438636D01*
X4622800Y11428221D01*
X4622800Y11417808D01*
X4627879Y11407394D01*
X4633213Y11402060D01*
X4643627Y11396979D01*
X4674870Y11386565D01*
X4685029Y11381486D01*
X4690363Y11376152D01*
X4695443Y11365737D01*
X4695443Y11350244D01*
X4685029Y11339829D01*
X4669536Y11334750D01*
X4648708Y11334750D01*
X4633213Y11339829D01*
X4622800Y11350244D01*
X4729734Y11443715D02*
G01*
X4755895Y11334750D01*
X4781804Y11443715D02*
G01*
X4755895Y11334750D01*
X4781804Y11443715D02*
G01*
X4807711Y11334750D01*
X4833620Y11443715D02*
G01*
X4807711Y11334750D01*
X4873243Y11417808D02*
G01*
X4873243Y11422887D01*
X4878324Y11433302D01*
X4883658Y11438636D01*
X4894072Y11443715D01*
X4914900Y11443715D01*
X4925059Y11438636D01*
X4930393Y11433302D01*
X4935474Y11422887D01*
X4935474Y11412474D01*
X4930393Y11402060D01*
X4919979Y11386565D01*
X4867909Y11334750D01*
X4940808Y11334750D01*
X254000Y4585715D02*
G01*
X254000Y4507737D01*
X259079Y4492244D01*
X269494Y4481829D01*
X285242Y4476750D01*
X295655Y4476750D01*
X311150Y4481829D01*
X321563Y4492244D01*
X326644Y4507737D01*
X326644Y4585715D01*
X433831Y4570221D02*
G01*
X423418Y4580636D01*
X407670Y4585715D01*
X387095Y4585715D01*
X371347Y4580636D01*
X360934Y4570221D01*
X360934Y4559807D01*
X366268Y4549394D01*
X371347Y4544060D01*
X381762Y4538979D01*
X413004Y4528565D01*
X423418Y4523486D01*
X428497Y4518152D01*
X433831Y4507737D01*
X433831Y4492244D01*
X423418Y4481829D01*
X407670Y4476750D01*
X387095Y4476750D01*
X371347Y4481829D01*
X360934Y4492244D01*
X468121Y4585715D02*
G01*
X468121Y4476750D01*
X468121Y4585715D02*
G01*
X514857Y4585715D01*
X530352Y4580636D01*
X535686Y4575302D01*
X540765Y4564887D01*
X540765Y4554473D01*
X535686Y4544060D01*
X530352Y4538979D01*
X514857Y4533900D01*
X468121Y4533900D02*
G01*
X514857Y4533900D01*
X530352Y4528565D01*
X535686Y4523486D01*
X540765Y4513071D01*
X540765Y4497323D01*
X535686Y4486910D01*
X530352Y4481829D01*
X514857Y4476750D01*
X468121Y4476750D01*
D10*
X340868Y5706110D02*
G01*
X340868Y5583428D01*
X279400Y5644895D02*
G01*
X402081Y5644895D01*
X528828Y5726684D02*
G01*
X460755Y5726684D01*
X453897Y5665215D01*
X460755Y5672073D01*
X481329Y5678931D01*
X501650Y5678931D01*
X522223Y5672073D01*
X535686Y5658357D01*
X542544Y5638037D01*
X542544Y5624321D01*
X535686Y5604002D01*
X522223Y5590286D01*
X501650Y5583428D01*
X481329Y5583428D01*
X460755Y5590286D01*
X453897Y5597144D01*
X447039Y5610860D01*
X587502Y5726684D02*
G01*
X642112Y5583428D01*
X696721Y5726684D02*
G01*
X642112Y5583428D01*
X419100Y5485384D02*
G01*
X419100Y5342128D01*
X419100Y5485384D02*
G01*
X466852Y5485384D01*
X487171Y5478526D01*
X500887Y5464810D01*
X507745Y5451347D01*
X514604Y5430773D01*
X514604Y5396737D01*
X507745Y5376163D01*
X500887Y5362702D01*
X487171Y5348986D01*
X466852Y5342128D01*
X419100Y5342128D01*
X559562Y5403595D02*
G01*
X682244Y5403595D01*
X419100Y5218684D02*
G01*
X419100Y5075428D01*
X419100Y5218684D02*
G01*
X466852Y5218684D01*
X487171Y5211826D01*
X500887Y5198110D01*
X507745Y5184647D01*
X514604Y5164073D01*
X514604Y5130037D01*
X507745Y5109463D01*
X500887Y5096002D01*
X487171Y5082286D01*
X466852Y5075428D01*
X419100Y5075428D01*
X621029Y5198110D02*
G01*
X621029Y5075428D01*
X559562Y5136895D02*
G01*
X682244Y5136895D01*
X584962Y4930647D02*
G01*
X578104Y4944110D01*
X564387Y4957826D01*
X550671Y4964684D01*
X523494Y4964684D01*
X509778Y4957826D01*
X496315Y4944110D01*
X489457Y4930647D01*
X482600Y4910073D01*
X482600Y4876037D01*
X489457Y4855463D01*
X496315Y4842002D01*
X509778Y4828286D01*
X523494Y4821428D01*
X550671Y4821428D01*
X564387Y4828286D01*
X578104Y4842002D01*
X584962Y4855463D01*
X584962Y4876037D01*
X550671Y4876037D02*
G01*
X584962Y4876037D01*
X149352Y4418584D02*
G01*
X149352Y4275328D01*
X101600Y4418584D02*
G01*
X197104Y4418584D01*
X242062Y4418584D02*
G01*
X296671Y4350257D01*
X296671Y4275328D01*
X351028Y4418584D02*
G01*
X296671Y4350257D01*
X396239Y4418584D02*
G01*
X396239Y4275328D01*
X396239Y4418584D02*
G01*
X457454Y4418584D01*
X478028Y4411726D01*
X484886Y4404868D01*
X491489Y4391405D01*
X491489Y4370831D01*
X484886Y4357115D01*
X478028Y4350257D01*
X457454Y4343654D01*
X396239Y4343654D01*
X536702Y4418584D02*
G01*
X536702Y4275328D01*
X536702Y4418584D02*
G01*
X625347Y4418584D01*
X536702Y4350257D02*
G01*
X591057Y4350257D01*
X536702Y4275328D02*
G01*
X625347Y4275328D01*
X877570Y4384547D02*
G01*
X870712Y4398010D01*
X856995Y4411726D01*
X843534Y4418584D01*
X816102Y4418584D01*
X802386Y4411726D01*
X788923Y4398010D01*
X782065Y4384547D01*
X775207Y4363973D01*
X775207Y4329937D01*
X782065Y4309363D01*
X788923Y4295902D01*
X802386Y4282186D01*
X816102Y4275328D01*
X843534Y4275328D01*
X856995Y4282186D01*
X870712Y4295902D01*
X877570Y4309363D01*
D11*
X204972Y8573008D02*
G01*
X199638Y8583421D01*
X189224Y8593836D01*
X179064Y8598915D01*
X158236Y8598915D01*
X147822Y8593836D01*
X137408Y8583421D01*
X132074Y8573008D01*
X126994Y8557260D01*
X126994Y8531352D01*
X132074Y8515858D01*
X137408Y8505444D01*
X147822Y8495029D01*
X158236Y8489950D01*
X179064Y8489950D01*
X189224Y8495029D01*
X199638Y8505444D01*
X204972Y8515858D01*
X317240Y8573008D02*
G01*
X311906Y8583421D01*
X301492Y8593836D01*
X291078Y8598915D01*
X270504Y8598915D01*
X260090Y8593836D01*
X249676Y8583421D01*
X244342Y8573008D01*
X239262Y8557260D01*
X239262Y8531352D01*
X244342Y8515858D01*
X249676Y8505444D01*
X260090Y8495029D01*
X270504Y8489950D01*
X291078Y8489950D01*
X301492Y8495029D01*
X311906Y8505444D01*
X317240Y8515858D01*
X351530Y8578087D02*
G01*
X361944Y8583421D01*
X377438Y8598915D01*
X377438Y8489950D01*
G36*
X596900Y12268200D02*
G01*
X596900Y11811000D01*
X608380Y11821922D01*
X619302Y11833402D01*
X629615Y11845442D01*
X639267Y11858040D01*
X648309Y11871045D01*
X656640Y11884558D01*
X664260Y11898426D01*
X671169Y11912701D01*
X677316Y11927332D01*
X682701Y11942216D01*
X687324Y11957405D01*
X691184Y11972747D01*
X694182Y11988342D01*
X696417Y12003989D01*
X697839Y12019788D01*
X698449Y12035637D01*
X698246Y12051487D01*
X697230Y12067286D01*
X695401Y12083034D01*
X692759Y12098680D01*
X691184Y12106452D01*
X687324Y12121794D01*
X682701Y12136983D01*
X677316Y12151868D01*
X671169Y12166498D01*
X664260Y12180773D01*
X656640Y12194641D01*
X648309Y12208154D01*
X639267Y12221159D01*
X629615Y12233757D01*
X619302Y12245797D01*
X608380Y12257278D01*
G37*
G36*
X2209800Y12611100D02*
G01*
X2220722Y12599619D01*
X2232202Y12588697D01*
X2244242Y12578384D01*
X2256840Y12568732D01*
X2269845Y12559690D01*
X2283358Y12551359D01*
X2297226Y12543739D01*
X2311501Y12536830D01*
X2326132Y12530683D01*
X2341016Y12525298D01*
X2356205Y12520676D01*
X2371547Y12516815D01*
X2387142Y12513818D01*
X2402789Y12511582D01*
X2418588Y12510160D01*
X2434437Y12509550D01*
X2450287Y12509754D01*
X2466086Y12510770D01*
X2481834Y12512598D01*
X2497480Y12515240D01*
X2505252Y12516815D01*
X2520594Y12520676D01*
X2535783Y12525298D01*
X2550668Y12530683D01*
X2565298Y12536830D01*
X2579573Y12543739D01*
X2593441Y12551359D01*
X2606954Y12559690D01*
X2619959Y12568732D01*
X2632557Y12578384D01*
X2644597Y12588697D01*
X2656078Y12599619D01*
X2667000Y12611100D01*
G37*
G36*
X4572000Y12611100D02*
G01*
X4582922Y12599619D01*
X4594402Y12588697D01*
X4606442Y12578384D01*
X4619040Y12568732D01*
X4632045Y12559690D01*
X4645558Y12551359D01*
X4659426Y12543739D01*
X4673701Y12536830D01*
X4688332Y12530683D01*
X4703216Y12525298D01*
X4718405Y12520676D01*
X4733747Y12516815D01*
X4749342Y12513818D01*
X4764989Y12511582D01*
X4780788Y12510160D01*
X4796637Y12509550D01*
X4812487Y12509754D01*
X4828286Y12510770D01*
X4844034Y12512598D01*
X4859680Y12515240D01*
X4867452Y12516815D01*
X4882794Y12520676D01*
X4897983Y12525298D01*
X4912868Y12530683D01*
X4927498Y12536830D01*
X4941773Y12543739D01*
X4955641Y12551359D01*
X4969154Y12559690D01*
X4982159Y12568732D01*
X4994757Y12578384D01*
X5006797Y12588697D01*
X5018278Y12599619D01*
X5029200Y12611100D01*
G37*
G36*
X1798980Y4745024D02*
G01*
X1798980Y4144975D01*
X1811731Y4158996D01*
X1823872Y4173474D01*
X1835353Y4188510D01*
X1846173Y4204055D01*
X1856282Y4220006D01*
X1865731Y4236415D01*
X1874418Y4253230D01*
X1882393Y4270349D01*
X1889607Y4287824D01*
X1896059Y4305604D01*
X1901748Y4323689D01*
X1906625Y4341926D01*
X1910689Y4360418D01*
X1913991Y4379061D01*
X1916430Y4397806D01*
X1918055Y4416653D01*
X1918919Y4435551D01*
X1918919Y4454448D01*
X1918055Y4473346D01*
X1916430Y4492193D01*
X1913991Y4510938D01*
X1910689Y4529582D01*
X1906625Y4548073D01*
X1901748Y4566310D01*
X1896059Y4584395D01*
X1889607Y4602175D01*
X1882393Y4619650D01*
X1874418Y4636770D01*
X1865731Y4653584D01*
X1856282Y4669993D01*
X1846173Y4685944D01*
X1835353Y4701489D01*
X1823872Y4716526D01*
X1811731Y4731004D01*
G37*
G36*
X1955749Y7645400D02*
G01*
X1955749Y6934200D01*
X2031949Y7035800D01*
X2082749Y7188200D01*
X2108149Y7340600D01*
X2082749Y7442200D01*
G37*
G36*
X546100Y7620000D02*
G01*
X534619Y7609078D01*
X523697Y7597597D01*
X513384Y7585557D01*
X503732Y7572959D01*
X494690Y7559954D01*
X486359Y7546441D01*
X478739Y7532573D01*
X471830Y7518298D01*
X465683Y7503668D01*
X460298Y7488783D01*
X455676Y7473594D01*
X451815Y7458252D01*
X448818Y7442657D01*
X446582Y7427010D01*
X445160Y7411212D01*
X444550Y7395362D01*
X444754Y7379512D01*
X445770Y7363714D01*
X447598Y7347966D01*
X450240Y7332319D01*
X451815Y7324547D01*
X455676Y7309205D01*
X460298Y7294016D01*
X465683Y7279131D01*
X471830Y7264501D01*
X478739Y7250226D01*
X486359Y7236358D01*
X494690Y7222845D01*
X503732Y7209840D01*
X513384Y7197242D01*
X523697Y7185202D01*
X534619Y7173722D01*
X546100Y7162800D01*
G37*
G36*
X673100Y10820400D02*
G01*
X673100Y10363200D01*
X684580Y10374122D01*
X695502Y10385602D01*
X705815Y10397642D01*
X715467Y10410240D01*
X724509Y10423245D01*
X732840Y10436758D01*
X740460Y10450626D01*
X747369Y10464901D01*
X753516Y10479532D01*
X758901Y10494416D01*
X763524Y10509605D01*
X767384Y10524947D01*
X770382Y10540542D01*
X772617Y10556189D01*
X774039Y10571988D01*
X774649Y10587837D01*
X774446Y10603687D01*
X773430Y10619486D01*
X771601Y10635234D01*
X768959Y10650880D01*
X767384Y10658652D01*
X763524Y10673994D01*
X758901Y10689183D01*
X753516Y10704068D01*
X747369Y10718698D01*
X740460Y10732973D01*
X732840Y10746841D01*
X724509Y10760354D01*
X715467Y10773359D01*
X705815Y10785957D01*
X695502Y10797997D01*
X684580Y10809478D01*
G37*
G36*
X6438900Y10795000D02*
G01*
X6427419Y10784078D01*
X6416497Y10772597D01*
X6406184Y10760557D01*
X6396532Y10747959D01*
X6387490Y10734954D01*
X6379159Y10721441D01*
X6371539Y10707573D01*
X6364630Y10693298D01*
X6358483Y10678668D01*
X6353098Y10663783D01*
X6348476Y10648594D01*
X6344615Y10633252D01*
X6341618Y10617657D01*
X6339382Y10602010D01*
X6337960Y10586212D01*
X6337350Y10570362D01*
X6337554Y10554512D01*
X6338570Y10538714D01*
X6340398Y10522966D01*
X6343040Y10507319D01*
X6344615Y10499547D01*
X6348476Y10484205D01*
X6353098Y10469016D01*
X6358483Y10454132D01*
X6364630Y10439501D01*
X6371539Y10425226D01*
X6379159Y10411358D01*
X6387490Y10397845D01*
X6396532Y10384840D01*
X6406184Y10372242D01*
X6416497Y10360202D01*
X6427419Y10348722D01*
X6438900Y10337800D01*
G37*
D12*
X3302000Y6461252D02*
G01*
X3556787Y6460718D01*
X3759200Y6461252D02*
G01*
X4013987Y6460718D01*
X4404359Y7510779D02*
G01*
X4404359Y7272020D01*
X4404359Y7272020D02*
G01*
X3774440Y7272020D01*
X3774440Y7272020D02*
G01*
X3774440Y7510779D01*
X3774440Y7510779D02*
G01*
X4404359Y7510779D01*
X4937759Y7053579D02*
G01*
X4937759Y6814820D01*
X4937759Y6814820D02*
G01*
X4307840Y6814820D01*
X4307840Y6814820D02*
G01*
X4307840Y7053579D01*
X4307840Y7053579D02*
G01*
X4937759Y7053579D01*
X254000Y12242800D02*
G01*
X254000Y12141200D01*
X203200Y12192000D02*
G01*
X304800Y12192000D01*
X2641600Y12954000D02*
G01*
X2540000Y12954000D01*
X2590800Y13004800D02*
G01*
X2590800Y12903200D01*
X5003800Y12954000D02*
G01*
X4902200Y12954000D01*
X4953000Y13004800D02*
G01*
X4953000Y12903200D01*
X1304000Y4564999D02*
G01*
X1179540Y4564999D01*
X1241770Y4497689D02*
G01*
X1241770Y4632309D01*
D13*
X1270254Y3759454D02*
G01*
X1778254Y3759454D01*
X1778254Y4013454D01*
X1270254Y4013454D01*
X1270254Y3759454D01*
D12*
X1142974Y7289800D02*
G01*
X1244574Y7289800D01*
X1193774Y7366000D02*
G01*
X1193774Y7213600D01*
X889000Y7188200D02*
G01*
X889000Y7289800D01*
X939800Y7239000D02*
G01*
X838200Y7239000D01*
X1000760Y11244579D02*
G01*
X1000760Y11005820D01*
X1000760Y11005820D02*
G01*
X370839Y11005820D01*
X370839Y11005820D02*
G01*
X370839Y11244579D01*
X370839Y11244579D02*
G01*
X1000760Y11244579D01*
X5882640Y11005820D02*
G01*
X5882640Y11244579D01*
X5882640Y11244579D02*
G01*
X6512559Y11244579D01*
X6512559Y11244579D02*
G01*
X6512559Y11005820D01*
X6512559Y11005820D02*
G01*
X5882640Y11005820D01*
X3106420Y4556760D02*
G01*
X3345179Y4556760D01*
X3345179Y4556760D02*
G01*
X3345179Y3926839D01*
X3345179Y3926839D02*
G01*
X3106420Y3926839D01*
X3106420Y3926839D02*
G01*
X3106420Y4556760D01*
X5196840Y3538220D02*
G01*
X5196840Y3776979D01*
X5196840Y3776979D02*
G01*
X5826759Y3776979D01*
X5826759Y3776979D02*
G01*
X5826759Y3538220D01*
X5826759Y3538220D02*
G01*
X5196840Y3538220D01*
X5196840Y3843020D02*
G01*
X5196840Y4081779D01*
X5196840Y4081779D02*
G01*
X5826759Y4081779D01*
X5826759Y4081779D02*
G01*
X5826759Y3843020D01*
X5826759Y3843020D02*
G01*
X5196840Y3843020D01*
X5196840Y4147820D02*
G01*
X5196840Y4386579D01*
X5196840Y4386579D02*
G01*
X5826759Y4386579D01*
X5826759Y4386579D02*
G01*
X5826759Y4147820D01*
X5826759Y4147820D02*
G01*
X5196840Y4147820D01*
X384286Y8310402D02*
G01*
X1444487Y8310402D01*
X1444487Y7830593D01*
X384286Y7830593D01*
X384286Y8309894D01*
X384286Y8310402D01*
X1444383Y8250486D02*
G01*
X384390Y8250486D01*
X889000Y12573000D02*
G01*
X889000Y12827000D01*
X635000Y12827000D01*
X635000Y12573000D02*
G01*
X1651000Y12573000D01*
X1651000Y13081000D01*
X635000Y13081000D01*
X635000Y12573000D01*
D14*
X1651000Y12446000D02*
G01*
X1905000Y12446000D01*
X1905000Y16510000D02*
G01*
X1905000Y12446000D01*
X1143000Y16410000D02*
G01*
X843000Y16410000D01*
X843000Y15810001D01*
X1442999Y15810001D01*
X1442999Y16410000D01*
X1143000Y16410000D01*
X893013Y16410000D02*
G01*
X893013Y16760012D01*
X1393012Y16410000D02*
G01*
X1393012Y16760012D01*
X635000Y12446000D02*
G01*
X381000Y12446000D01*
X381000Y16510000D01*
X893013Y16510000D01*
X1393012Y16510000D02*
G01*
X1893011Y16510000D01*
X893013Y16760012D02*
G01*
X1442999Y16760012D01*
X1442999Y17260011D01*
X893013Y16760012D02*
G01*
X843000Y16760012D01*
X843000Y17260011D01*
X843000Y17260011D02*
G01*
X1442999Y17260011D01*
D12*
X3378200Y12573000D02*
G01*
X3378200Y12827000D01*
X3124200Y12827000D01*
X3124200Y12573000D02*
G01*
X4140200Y12573000D01*
X4140200Y13081000D01*
X3124200Y13081000D01*
X3124200Y12573000D01*
D14*
X4140200Y12446000D02*
G01*
X4394200Y12446000D01*
X4394200Y16510000D02*
G01*
X4394200Y12446000D01*
X3632200Y16410000D02*
G01*
X3332200Y16410000D01*
X3332200Y15810001D01*
X3932199Y15810001D01*
X3932199Y16410000D01*
X3632200Y16410000D01*
X3382213Y16410000D02*
G01*
X3382213Y16760012D01*
X3882212Y16410000D02*
G01*
X3882212Y16760012D01*
X3124200Y12446000D02*
G01*
X2870200Y12446000D01*
X2870200Y16510000D01*
X3382213Y16510000D01*
X3882212Y16510000D02*
G01*
X4382211Y16510000D01*
X3382213Y16760012D02*
G01*
X3932199Y16760012D01*
X3932199Y17260011D01*
X3382213Y16760012D02*
G01*
X3332200Y16760012D01*
X3332200Y17260011D01*
X3332200Y17260011D02*
G01*
X3932199Y17260011D01*
D12*
X5715000Y12573000D02*
G01*
X5715000Y12827000D01*
X5461000Y12827000D01*
X5461000Y12573000D02*
G01*
X6477000Y12573000D01*
X6477000Y13081000D01*
X5461000Y13081000D01*
X5461000Y12573000D01*
D14*
X6477000Y12446000D02*
G01*
X6731000Y12446000D01*
X6731000Y16510000D02*
G01*
X6731000Y12446000D01*
X5969000Y16410000D02*
G01*
X5669000Y16410000D01*
X5669000Y15810001D01*
X6268999Y15810001D01*
X6268999Y16410000D01*
X5969000Y16410000D01*
X5719013Y16410000D02*
G01*
X5719013Y16760012D01*
X6219012Y16410000D02*
G01*
X6219012Y16760012D01*
X5461000Y12446000D02*
G01*
X5207000Y12446000D01*
X5207000Y16510000D01*
X5719013Y16510000D01*
X6219012Y16510000D02*
G01*
X6719011Y16510000D01*
X5719013Y16760012D02*
G01*
X6268999Y16760012D01*
X6268999Y17260011D01*
X5719013Y16760012D02*
G01*
X5669000Y16760012D01*
X5669000Y17260011D01*
X5669000Y17260011D02*
G01*
X6268999Y17260011D01*
D12*
X5575300Y1130300D02*
G01*
X5626193Y1130300D01*
X5626100Y2933702D02*
G01*
X5575206Y2933702D01*
X3704498Y1125296D02*
G01*
X3787980Y1125296D01*
X3704498Y1387381D02*
G01*
X3704498Y1125296D01*
X3787985Y2926996D02*
G01*
X3704498Y2926996D01*
X3704498Y2666608D01*
X5740400Y2761896D02*
G01*
X6210300Y2761896D01*
X6210300Y2520596D01*
X5969000Y2520596D01*
X5969000Y2266596D01*
X6210300Y2266596D01*
X6210300Y2012596D01*
X5969000Y2012596D01*
X5969000Y1758596D01*
X6210300Y1758596D01*
X6210300Y1504596D01*
X5727700Y1504596D01*
X6210300Y1504596D02*
G01*
X6210300Y1301396D01*
X5727700Y1301396D01*
X1417599Y2426995D02*
G01*
X1417599Y1637004D01*
X817600Y1637004D01*
X817600Y2426995D01*
X1417599Y2426995D01*
X6326098Y2933700D02*
G01*
X6326098Y1130300D01*
X5626100Y1130300D01*
X5626100Y2933700D01*
X6326098Y2933700D01*
X6400800Y3458997D02*
G01*
X6400800Y605002D01*
X904798Y605002D01*
X904798Y3458997D01*
X6400800Y3458997D01*
X3856888Y1504950D02*
G01*
X3856888Y1416050D01*
X3653688Y1416050D01*
X3653688Y1504950D01*
X3856888Y1504950D01*
X3856888Y1631950D02*
G01*
X3856888Y1543050D01*
X3653688Y1543050D01*
X3653688Y1631950D01*
X3856888Y1631950D01*
X3856888Y1758950D02*
G01*
X3856888Y1670050D01*
X3653688Y1670050D01*
X3653688Y1758950D01*
X3856888Y1758950D01*
X3856888Y1885950D02*
G01*
X3856888Y1797050D01*
X3653688Y1797050D01*
X3653688Y1885950D01*
X3856888Y1885950D01*
X3856888Y2012950D02*
G01*
X3856888Y1924050D01*
X3653688Y1924050D01*
X3653688Y2012950D01*
X3856888Y2012950D01*
X3856888Y2139950D02*
G01*
X3856888Y2051050D01*
X3653688Y2051050D01*
X3653688Y2139950D01*
X3856888Y2139950D01*
X3856888Y2266950D02*
G01*
X3856888Y2178050D01*
X3653688Y2178050D01*
X3653688Y2266950D01*
X3856888Y2266950D01*
X3856888Y2393950D02*
G01*
X3856888Y2305050D01*
X3653688Y2305050D01*
X3653688Y2393950D01*
X3856888Y2393950D01*
X3856888Y2520950D02*
G01*
X3856888Y2432050D01*
X3653688Y2432050D01*
X3653688Y2520950D01*
X3856888Y2520950D01*
X3856888Y2660650D02*
G01*
X3856888Y2559050D01*
X3653688Y2559050D01*
X3653688Y2660650D01*
X3856888Y2660650D01*
X5545988Y1275994D02*
G01*
X5545988Y1072794D01*
X5457088Y1072794D01*
X5457088Y1275994D01*
X5545988Y1275994D01*
X5418988Y1275994D02*
G01*
X5418988Y1072794D01*
X5330088Y1072794D01*
X5330088Y1275994D01*
X5418988Y1275994D01*
X5291988Y1275994D02*
G01*
X5291988Y1072794D01*
X5203088Y1072794D01*
X5203088Y1275994D01*
X5291988Y1275994D01*
X5164988Y1275994D02*
G01*
X5164988Y1072794D01*
X5076088Y1072794D01*
X5076088Y1275994D01*
X5164988Y1275994D01*
X5037988Y1275994D02*
G01*
X5037988Y1072794D01*
X4949088Y1072794D01*
X4949088Y1275994D01*
X5037988Y1275994D01*
X4910988Y1275994D02*
G01*
X4910988Y1072794D01*
X4822088Y1072794D01*
X4822088Y1275994D01*
X4910988Y1275994D01*
X4783988Y1275994D02*
G01*
X4783988Y1072794D01*
X4695088Y1072794D01*
X4695088Y1275994D01*
X4783988Y1275994D01*
X4656988Y1275994D02*
G01*
X4656988Y1072794D01*
X4568088Y1072794D01*
X4568088Y1275994D01*
X4656988Y1275994D01*
X4529988Y1275994D02*
G01*
X4529988Y1072794D01*
X4441088Y1072794D01*
X4441088Y1275994D01*
X4529988Y1275994D01*
X4402988Y1275994D02*
G01*
X4402988Y1072794D01*
X4314088Y1072794D01*
X4314088Y1275994D01*
X4402988Y1275994D01*
X4275988Y1275994D02*
G01*
X4275988Y1072794D01*
X4187088Y1072794D01*
X4187088Y1275994D01*
X4275988Y1275994D01*
X4148988Y1275994D02*
G01*
X4148988Y1072794D01*
X4060088Y1072794D01*
X4060088Y1275994D01*
X4148988Y1275994D01*
X4021988Y1275994D02*
G01*
X4021988Y1072794D01*
X3933088Y1072794D01*
X3933088Y1275994D01*
X4021988Y1275994D01*
X3894988Y1275994D02*
G01*
X3894988Y1072794D01*
X3806088Y1072794D01*
X3806088Y1275994D01*
X3894988Y1275994D01*
X3894988Y2991205D02*
G01*
X3894988Y2788005D01*
X3806088Y2788005D01*
X3806088Y2991205D01*
X3894988Y2991205D01*
X4021988Y2991205D02*
G01*
X4021988Y2788005D01*
X3933088Y2788005D01*
X3933088Y2991205D01*
X4021988Y2991205D01*
X4148988Y2991205D02*
G01*
X4148988Y2788005D01*
X4060088Y2788005D01*
X4060088Y2991205D01*
X4148988Y2991205D01*
X4275988Y2991205D02*
G01*
X4275988Y2788005D01*
X4187088Y2788005D01*
X4187088Y2991205D01*
X4275988Y2991205D01*
X4402988Y2991205D02*
G01*
X4402988Y2788005D01*
X4314088Y2788005D01*
X4314088Y2991205D01*
X4402988Y2991205D01*
X4529988Y2991205D02*
G01*
X4529988Y2788005D01*
X4441088Y2788005D01*
X4441088Y2991205D01*
X4529988Y2991205D01*
X4656988Y2991205D02*
G01*
X4656988Y2788005D01*
X4568088Y2788005D01*
X4568088Y2991205D01*
X4656988Y2991205D01*
X4783988Y2991205D02*
G01*
X4783988Y2788005D01*
X4695088Y2788005D01*
X4695088Y2991205D01*
X4783988Y2991205D01*
X4910988Y2991205D02*
G01*
X4910988Y2788005D01*
X4822088Y2788005D01*
X4822088Y2991205D01*
X4910988Y2991205D01*
X5037988Y2991205D02*
G01*
X5037988Y2788005D01*
X4949088Y2788005D01*
X4949088Y2991205D01*
X5037988Y2991205D01*
X5164988Y2991205D02*
G01*
X5164988Y2788005D01*
X5076088Y2788005D01*
X5076088Y2991205D01*
X5164988Y2991205D01*
X5291988Y2991205D02*
G01*
X5291988Y2788005D01*
X5203088Y2788005D01*
X5203088Y2991205D01*
X5291988Y2991205D01*
X5418988Y2991205D02*
G01*
X5418988Y2788005D01*
X5330088Y2788005D01*
X5330088Y2991205D01*
X5418988Y2991205D01*
X5545988Y2991205D02*
G01*
X5545988Y2788005D01*
X5457088Y2788005D01*
X5457088Y2991205D01*
X5545988Y2991205D01*
X1346200Y1422400D02*
G01*
X1346200Y1028700D01*
X1041400Y1028700D01*
X1041400Y1422400D01*
X1346200Y1422400D01*
X1346200Y3035300D02*
G01*
X1346200Y2641600D01*
X1041400Y2641600D01*
X1041400Y3035300D01*
X1346200Y3035300D01*
X3111500Y2819400D02*
G01*
X3111500Y2692400D01*
X2857500Y2692400D01*
X2857500Y2819400D01*
X3111500Y2819400D01*
X2806700Y2813050D02*
G01*
X2806700Y2698750D01*
X2552700Y2698750D01*
X2552700Y2813050D01*
X2806700Y2813050D01*
X3060700Y1892300D02*
G01*
X3060700Y1612900D01*
X2933700Y1612900D01*
X2933700Y1892300D01*
X3060700Y1892300D01*
X3111500Y1803400D02*
G01*
X3111500Y1701800D01*
X3060700Y1701800D01*
X3060700Y1803400D01*
X3111500Y1803400D01*
X2933700Y1854200D02*
G01*
X2933700Y1803400D01*
X2870200Y1803400D01*
X2870200Y1854200D01*
X2933700Y1854200D01*
X2933700Y1701800D02*
G01*
X2933700Y1651000D01*
X2870200Y1651000D01*
X2870200Y1701800D01*
X2933700Y1701800D01*
X2400300Y2146300D02*
G01*
X2400300Y1625600D01*
X1879600Y1625600D01*
X1879600Y2146300D01*
X2400300Y2146300D01*
X2216150Y2978150D02*
G01*
X2216150Y2470150D01*
X1835150Y2470150D01*
X1835150Y2978150D01*
X2216150Y2978150D01*
X2355850Y2851150D02*
G01*
X2355850Y2597150D01*
X2216150Y2597150D01*
X2216150Y2851150D01*
X2355850Y2851150D01*
X1828800Y2616200D02*
G01*
X1828800Y2552700D01*
X1689100Y2552700D01*
X1689100Y2616200D01*
X1828800Y2616200D01*
X1828800Y2755900D02*
G01*
X1828800Y2692400D01*
X1689100Y2692400D01*
X1689100Y2755900D01*
X1828800Y2755900D01*
X1828800Y2895600D02*
G01*
X1828800Y2832100D01*
X1689100Y2832100D01*
X1689100Y2895600D01*
X1828800Y2895600D01*
X2933700Y1257300D02*
G01*
X2933700Y1206500D01*
X2870200Y1206500D01*
X2870200Y1257300D01*
X2933700Y1257300D01*
X2933700Y1409700D02*
G01*
X2933700Y1358900D01*
X2870200Y1358900D01*
X2870200Y1409700D01*
X2933700Y1409700D01*
X3111500Y1358900D02*
G01*
X3111500Y1257300D01*
X3060700Y1257300D01*
X3060700Y1358900D01*
X3111500Y1358900D01*
X3060700Y1447800D02*
G01*
X3060700Y1168400D01*
X2933700Y1168400D01*
X2933700Y1447800D01*
X3060700Y1447800D01*
X3517900Y2686050D02*
G01*
X3517900Y2571750D01*
X3263900Y2571750D01*
X3263900Y2686050D01*
X3517900Y2686050D01*
X3517900Y2514600D02*
G01*
X3517900Y2400300D01*
X3263900Y2400300D01*
X3263900Y2514600D01*
X3517900Y2514600D01*
X3517900Y2343150D02*
G01*
X3517900Y2228850D01*
X3263900Y2228850D01*
X3263900Y2343150D01*
X3517900Y2343150D01*
X3517900Y2171700D02*
G01*
X3517900Y2057400D01*
X3263900Y2057400D01*
X3263900Y2171700D01*
X3517900Y2171700D01*
X3517900Y2000250D02*
G01*
X3517900Y1885950D01*
X3263900Y1885950D01*
X3263900Y2000250D01*
X3517900Y2000250D01*
X3517900Y1828800D02*
G01*
X3517900Y1714500D01*
X3263900Y1714500D01*
X3263900Y1828800D01*
X3517900Y1828800D01*
X3517900Y1657350D02*
G01*
X3517900Y1543050D01*
X3263900Y1543050D01*
X3263900Y1657350D01*
X3517900Y1657350D01*
X3517900Y1485900D02*
G01*
X3517900Y1371600D01*
X3263900Y1371600D01*
X3263900Y1485900D01*
X3517900Y1485900D01*
X2743200Y1879600D02*
G01*
X2743200Y1625600D01*
X2628900Y1625600D01*
X2628900Y1879600D01*
X2743200Y1879600D01*
X2736850Y1346200D02*
G01*
X2736850Y1092200D01*
X2622550Y1092200D01*
X2622550Y1346200D01*
X2736850Y1346200D01*
X2559050Y1346200D02*
G01*
X2559050Y1092200D01*
X2444750Y1092200D01*
X2444750Y1346200D01*
X2559050Y1346200D01*
X2381250Y1346200D02*
G01*
X2381250Y1092200D01*
X2266950Y1092200D01*
X2266950Y1346200D01*
X2381250Y1346200D01*
X2203450Y1346200D02*
G01*
X2203450Y1092200D01*
X2089150Y1092200D01*
X2089150Y1346200D01*
X2203450Y1346200D01*
X2025650Y1346200D02*
G01*
X2025650Y1092200D01*
X1911350Y1092200D01*
X1911350Y1346200D01*
X2025650Y1346200D01*
X1847850Y1346200D02*
G01*
X1847850Y1092200D01*
X1733550Y1092200D01*
X1733550Y1346200D01*
X1847850Y1346200D01*
X2805099Y2603500D02*
G01*
X2805099Y2275712D01*
X2565400Y2275712D01*
X2565400Y2603500D01*
X2805099Y2603500D01*
X3098800Y2616200D02*
G01*
X3098800Y2235200D01*
X2921000Y2235200D01*
X2921000Y2616200D01*
X3098800Y2616200D01*
X1765300Y2133600D02*
G01*
X1765300Y1752600D01*
X1587500Y1752600D01*
X1587500Y2133600D01*
X1765300Y2133600D01*
X330200Y10795000D02*
G01*
X330200Y10693400D01*
X279400Y10744200D02*
G01*
X381000Y10744200D01*
X6781800Y10363200D02*
G01*
X6781800Y10464800D01*
X6832600Y10414000D02*
G01*
X6731000Y10414000D01*
X9181002Y9707399D02*
G01*
X9981003Y9707399D01*
X9181002Y9089483D02*
G01*
X9981003Y9089483D01*
X9981003Y9707407D02*
G01*
X9981003Y9087406D01*
X9009199Y9721037D02*
G01*
X9174200Y9721037D01*
X9009199Y9065602D02*
G01*
X9174200Y9065602D01*
X9174200Y9065602D02*
G01*
X9174200Y9722401D01*
X9009199Y8640599D02*
G01*
X9009199Y10140602D01*
X6209202Y8640599D02*
G01*
X9009199Y8640599D01*
X6515907Y9912609D02*
G01*
X6730908Y9912609D01*
X6730908Y8892603D01*
X6220899Y8892603D01*
X6220899Y9912609D01*
X6515907Y9912609D01*
X6475910Y9912609D02*
G01*
X6475910Y9657610D01*
X6220899Y9657610D01*
X6209202Y10140602D02*
G01*
X9009199Y10140602D01*
X6209202Y8640599D02*
G01*
X6209202Y10140602D01*
X1511599Y6355999D02*
G01*
X1511599Y5836000D01*
X1511599Y5836000D02*
G01*
X1231600Y5836000D01*
X1231600Y6355999D02*
G01*
X1231600Y5836000D01*
X1511599Y6355999D02*
G01*
X1231600Y6355999D01*
X1511599Y6260073D02*
G01*
X1231600Y6260073D01*
D10*
X3390900Y482600D02*
G01*
X3200400Y482600D01*
X3200400Y228600D01*
X4470400Y228600D01*
X4470400Y482600D01*
D15*
X4470400Y482600D02*
G01*
X3390900Y482600D01*
D12*
X2565400Y5446044D02*
G01*
X2565400Y5221955D01*
X1990186Y5638800D02*
G01*
X2480213Y5638800D01*
X1905000Y5446044D02*
G01*
X1905000Y5221955D01*
X1990186Y5029200D02*
G01*
X2480213Y5029200D01*
X3987800Y5446044D02*
G01*
X3987800Y5221955D01*
X3412586Y5638800D02*
G01*
X3902613Y5638800D01*
X3327400Y5446044D02*
G01*
X3327400Y5221955D01*
X3412586Y5029200D02*
G01*
X3902613Y5029200D01*
X5410200Y5446044D02*
G01*
X5410200Y5221955D01*
X4834986Y5638800D02*
G01*
X5325013Y5638800D01*
X4749800Y5446044D02*
G01*
X4749800Y5221955D01*
X4834986Y5029200D02*
G01*
X5325013Y5029200D01*
X635000Y11363452D02*
G01*
X889787Y11362918D01*
X6223000Y11363452D02*
G01*
X6477787Y11362918D01*
X4357347Y7562481D02*
G01*
X5157703Y7562481D01*
X2957296Y7762379D02*
G01*
X4357347Y7762379D01*
X4357347Y7562578D02*
G01*
X4357347Y7762481D01*
X2957342Y7562481D02*
G01*
X2957342Y7762379D01*
X3403348Y9817239D02*
G01*
X3403348Y10452239D01*
X3657348Y10462524D02*
G01*
X3657348Y9817239D01*
X3911348Y9817239D02*
G01*
X3911348Y10452239D01*
X4182338Y9817239D02*
G01*
X4182338Y10462653D01*
X3132358Y9812538D02*
G01*
X3967731Y9812413D01*
X4182338Y9812538D01*
X3132358Y10462524D02*
G01*
X3132358Y9817239D01*
X2157702Y10462501D02*
G01*
X4857341Y10462501D01*
X2457348Y7562481D02*
G01*
X2957342Y7562481D01*
X5157703Y10162532D02*
G01*
X5157703Y7562527D01*
X2157702Y10462501D02*
G01*
X2157702Y7862529D01*
X1625600Y11057199D02*
G01*
X1625600Y10960100D01*
X1651000Y10960100D01*
X1659651Y11188700D02*
G01*
X1625600Y11188700D01*
X1625600Y11091600D01*
X1917700Y11188700D02*
G01*
X1651000Y11188700D01*
X1651000Y10960100D01*
X1917700Y10960100D01*
X1917700Y11188700D01*
X1327162Y11277600D02*
G01*
X2228862Y11277600D01*
X2228862Y10871200D01*
X1327162Y10871200D01*
X1327162Y11277600D01*
X4622800Y11057199D02*
G01*
X4622800Y10960100D01*
X4648200Y10960100D01*
X4656851Y11188700D02*
G01*
X4622800Y11188700D01*
X4622800Y11091600D01*
X4914900Y11188700D02*
G01*
X4648200Y11188700D01*
X4648200Y10960100D01*
X4914900Y10960100D01*
X4914900Y11188700D01*
X4324362Y11277600D02*
G01*
X5226062Y11277600D01*
X5226062Y10871200D01*
X4324362Y10871200D01*
X4324362Y11277600D01*
D14*
X-431800Y4635500D02*
G01*
X-431800Y4762500D01*
X-495300Y4762500D01*
X-495300Y5778500D01*
X-431800Y5778500D01*
X-431800Y5905500D01*
X1066800Y4635500D02*
G01*
X1066800Y5905500D01*
X1066800Y4635500D02*
G01*
X-433194Y4635500D01*
X1066800Y5905500D02*
G01*
X-433194Y5905500D01*
D12*
X-495300Y5270500D02*
G01*
X-495300Y5646676D01*
X-495300Y5778500D01*
X72392Y5778500D01*
X72392Y4928107D01*
X72392Y4762500D01*
X-495300Y4762500D01*
X-495300Y4928107D01*
X-495300Y5283200D01*
X-2069002Y9088600D02*
G01*
X-2869003Y9088600D01*
X-2069002Y9706516D02*
G01*
X-2869003Y9706516D01*
X-2869003Y9088592D02*
G01*
X-2869003Y9708593D01*
X-1897199Y9074962D02*
G01*
X-2062200Y9074962D01*
X-1897199Y9730397D02*
G01*
X-2062200Y9730397D01*
X-2062200Y9730397D02*
G01*
X-2062200Y9073598D01*
X-1897199Y10155400D02*
G01*
X-1897199Y8655397D01*
X902797Y10155400D02*
G01*
X-1897199Y10155400D01*
X596092Y8883390D02*
G01*
X381091Y8883390D01*
X381091Y9903396D01*
X891100Y9903396D01*
X891100Y8883390D01*
X596092Y8883390D01*
X636089Y8883390D02*
G01*
X636089Y9138389D01*
X891100Y9138389D01*
X902797Y8655397D02*
G01*
X-1897199Y8655397D01*
X902797Y10155400D02*
G01*
X902797Y8655397D01*
G75*
G01*
X3555543Y6461252D02*
G03*
X3302051Y6461252I-126746J154710D01*
G75*
G01*
X4012743Y6461252D02*
G03*
X3759251Y6461252I-126746J154710D01*
G75*
G01*
X1524254Y4845050D02*
G03*
X1531366Y4845050I3556J-399984D01*
D16*
G75*
G01*
X637390Y7767996D02*
G03*
X637644Y7767996I127J-20000D01*
D12*
G75*
G01*
X888543Y11363452D02*
G03*
X635051Y11363452I-126746J154710D01*
G75*
G01*
X6476543Y11363452D02*
G03*
X6223051Y11363452I-126746J154710D01*
G75*
G01*
X4857499Y10462654D02*
G02*
X5157470Y10162423I-28J-300000D01*
G75*
G01*
X2457453Y7562482D02*
G02*
X2157473Y7862451I20J299999D01*
G75*
G01
X695960Y12039600D02*
G03X695960Y12039600I-314960J0D01*
G75*
G01
X2753360Y12827000D02*
G03X2753360Y12827000I-314960J0D01*
G75*
G01
X5115560Y12827000D02*
G03X5115560Y12827000I-314960J0D01*
G75*
G01
X2100199Y7289800D02*
G03X2100199Y7289800I-499999J0D01*
G75*
G01
X1076960Y7391400D02*
G03X1076960Y7391400I-314960J0D01*
G75*
G01
X1283792Y1219200D02*
G03X1283792Y1219200I-89992J0D01*
G75*
G01
X1283792Y2844800D02*
G03X1283792Y2844800I-89992J0D01*
G75*
G01
X6350000Y3276600D02*
G03X6350000Y3276600I-127000J0D01*
G75*
G01
X1219200Y3276600D02*
G03X1219200Y3276600I-127000J0D01*
G75*
G01
X1219200Y787400D02*
G03X1219200Y787400I-127000J0D01*
G75*
G01
X6350000Y787400D02*
G03X6350000Y787400I-127000J0D01*
G75*
G01
X772160Y10591800D02*
G03X772160Y10591800I-314960J0D01*
G75*
G01
X6969760Y10566400D02*
G03X6969760Y10566400I-314960J0D01*
G75*
G01
X6188126Y9802597D02*
G03X6188126Y9802597I-27229J0D01*
G75*
G01
X2095500Y5511800D02*
G03X2095500Y5511800I-50800J0D01*
G75*
G01
X2082800Y5156200D02*
G03X2082800Y5156200I-50800J0D01*
G75*
G01
X2476500Y5511800D02*
G03X2476500Y5511800I-50800J0D01*
G75*
G01
X2463800Y5156200D02*
G03X2463800Y5156200I-50800J0D01*
G75*
G01
X2349500Y5334000D02*
G03X2349500Y5334000I-114300J0D01*
G75*
G01
X2385314Y5334000D02*
G03X2385314Y5334000I-150114J0D01*
G75*
G01
X3517900Y5511800D02*
G03X3517900Y5511800I-50800J0D01*
G75*
G01
X3505200Y5156200D02*
G03X3505200Y5156200I-50800J0D01*
G75*
G01
X3898900Y5511800D02*
G03X3898900Y5511800I-50800J0D01*
G75*
G01
X3886200Y5156200D02*
G03X3886200Y5156200I-50800J0D01*
G75*
G01
X3771900Y5334000D02*
G03X3771900Y5334000I-114300J0D01*
G75*
G01
X3807714Y5334000D02*
G03X3807714Y5334000I-150114J0D01*
G75*
G01
X4940300Y5511800D02*
G03X4940300Y5511800I-50800J0D01*
G75*
G01
X4927600Y5156200D02*
G03X4927600Y5156200I-50800J0D01*
G75*
G01
X5321300Y5511800D02*
G03X5321300Y5511800I-50800J0D01*
G75*
G01
X5308600Y5156200D02*
G03X5308600Y5156200I-50800J0D01*
G75*
G01
X5194300Y5334000D02*
G03X5194300Y5334000I-114300J0D01*
G75*
G01
X5230114Y5334000D02*
G03X5230114Y5334000I-150114J0D01*
D14*
G75*
G01
X1024407Y5651500D02*
G03X1024407Y5651500I-110007J0D01*
G75*
G01
X1024407Y5397500D02*
G03X1024407Y5397500I-110007J0D01*
G75*
G01
X1024407Y5143500D02*
G03X1024407Y5143500I-110007J0D01*
G75*
G01
X1024407Y4889500D02*
G03X1024407Y4889500I-110007J0D01*
D12*
G75*
G01
X978332Y8993403D02*
G03X978332Y8993403I-27229J0D01*
M02*
