G04 Layer: BottomSilkscreenLayer*
G04 EasyEDA v6.5.47, 2024-12-01 04:29:06*
G04 828b6d29a1934af580abbddb6604b3bb,8af82e7f419746c4a2ba1fe026a005d8,10*
G04 Gerber Generator version 0.2*
G04 Scale: 100 percent, Rotated: No, Reflected: No *
G04 Dimensions in millimeters *
G04 leading zeros omitted , absolute positions ,4 integer and 5 decimal *
%FSLAX45Y45*%
%MOMM*%

%ADD10C,0.1524*%
%ADD11C,0.2540*%
%ADD12C,0.2000*%

%LPD*%
D10*
X418084Y12979400D02*
G01*
X527050Y12979400D01*
X418084Y12979400D02*
G01*
X418084Y12932663D01*
X423163Y12917170D01*
X428497Y12911836D01*
X438912Y12906755D01*
X449326Y12906755D01*
X459739Y12911836D01*
X464820Y12917170D01*
X469900Y12932663D01*
X469900Y12979400D01*
X469900Y12943078D02*
G01*
X527050Y12906755D01*
X454405Y12804902D02*
G01*
X469900Y12809981D01*
X480313Y12820395D01*
X485647Y12835889D01*
X485647Y12841224D01*
X480313Y12856718D01*
X469900Y12867131D01*
X454405Y12872465D01*
X449326Y12872465D01*
X433578Y12867131D01*
X423163Y12856718D01*
X418084Y12841224D01*
X418084Y12835889D01*
X423163Y12820395D01*
X433578Y12809981D01*
X454405Y12804902D01*
X480313Y12804902D01*
X506476Y12809981D01*
X521970Y12820395D01*
X527050Y12835889D01*
X527050Y12846304D01*
X521970Y12862052D01*
X511555Y12867131D01*
X2907284Y13131800D02*
G01*
X3016250Y13131800D01*
X2907284Y13131800D02*
G01*
X2907284Y13085063D01*
X2912363Y13069570D01*
X2917697Y13064236D01*
X2928111Y13059155D01*
X2938525Y13059155D01*
X2948940Y13064236D01*
X2954020Y13069570D01*
X2959100Y13085063D01*
X2959100Y13131800D01*
X2959100Y13095478D02*
G01*
X3016250Y13059155D01*
X2928111Y13024865D02*
G01*
X2922777Y13014452D01*
X2907284Y12998704D01*
X3016250Y12998704D01*
X2907284Y12933426D02*
G01*
X2912363Y12948920D01*
X2928111Y12959334D01*
X2954020Y12964413D01*
X2969513Y12964413D01*
X2995675Y12959334D01*
X3011170Y12948920D01*
X3016250Y12933426D01*
X3016250Y12923012D01*
X3011170Y12907263D01*
X2995675Y12896850D01*
X2969513Y12891770D01*
X2954020Y12891770D01*
X2928111Y12896850D01*
X2912363Y12907263D01*
X2907284Y12923012D01*
X2907284Y12933426D01*
X5244084Y13106400D02*
G01*
X5353050Y13106400D01*
X5244084Y13106400D02*
G01*
X5244084Y13059663D01*
X5249163Y13044170D01*
X5254497Y13038836D01*
X5264911Y13033755D01*
X5275325Y13033755D01*
X5285740Y13038836D01*
X5290820Y13044170D01*
X5295900Y13059663D01*
X5295900Y13106400D01*
X5295900Y13070078D02*
G01*
X5353050Y13033755D01*
X5264911Y12999465D02*
G01*
X5259577Y12989052D01*
X5244084Y12973304D01*
X5353050Y12973304D01*
X5264911Y12939013D02*
G01*
X5259577Y12928600D01*
X5244084Y12913105D01*
X5353050Y12913105D01*
X6203950Y10298429D02*
G01*
X6312915Y10298429D01*
X6203950Y10298429D02*
G01*
X6203950Y10251694D01*
X6209029Y10236200D01*
X6214363Y10230865D01*
X6224777Y10225786D01*
X6235191Y10225786D01*
X6245606Y10230865D01*
X6250686Y10236200D01*
X6255765Y10251694D01*
X6255765Y10298429D01*
X6255765Y10262108D02*
G01*
X6312915Y10225786D01*
X6224777Y10191495D02*
G01*
X6219443Y10181081D01*
X6203950Y10165334D01*
X6312915Y10165334D01*
X6229858Y10125963D02*
G01*
X6224777Y10125963D01*
X6214363Y10120629D01*
X6209029Y10115550D01*
X6203950Y10105136D01*
X6203950Y10084308D01*
X6209029Y10073894D01*
X6214363Y10068813D01*
X6224777Y10063479D01*
X6235191Y10063479D01*
X6245606Y10068813D01*
X6261100Y10079228D01*
X6312915Y10131044D01*
X6312915Y10058400D01*
X965200Y10554715D02*
G01*
X965200Y10445750D01*
X965200Y10554715D02*
G01*
X918463Y10554715D01*
X902970Y10549636D01*
X897636Y10544302D01*
X892555Y10533887D01*
X892555Y10523474D01*
X897636Y10513060D01*
X902970Y10507979D01*
X918463Y10502900D01*
X965200Y10502900D01*
X928878Y10502900D02*
G01*
X892555Y10445750D01*
X858265Y10533887D02*
G01*
X847852Y10539221D01*
X832104Y10554715D01*
X832104Y10445750D01*
X787400Y10554715D02*
G01*
X730250Y10554715D01*
X761492Y10513060D01*
X745997Y10513060D01*
X735584Y10507979D01*
X730250Y10502900D01*
X725170Y10487152D01*
X725170Y10476737D01*
X730250Y10461244D01*
X740663Y10450829D01*
X756412Y10445750D01*
X771905Y10445750D01*
X787400Y10450829D01*
X792734Y10455910D01*
X797813Y10466324D01*
D11*
X373379Y13192760D02*
G01*
X134620Y13192760D01*
X134620Y13192760D02*
G01*
X134620Y12562839D01*
X134620Y12562839D02*
G01*
X373379Y12562839D01*
X373379Y12562839D02*
G01*
X373379Y13192760D01*
X2623820Y12715239D02*
G01*
X2862579Y12715239D01*
X2862579Y12715239D02*
G01*
X2862579Y13345160D01*
X2862579Y13345160D02*
G01*
X2623820Y13345160D01*
X2623820Y13345160D02*
G01*
X2623820Y12715239D01*
X4960620Y12715239D02*
G01*
X5199379Y12715239D01*
X5199379Y12715239D02*
G01*
X5199379Y13345160D01*
X5199379Y13345160D02*
G01*
X4960620Y13345160D01*
X4960620Y13345160D02*
G01*
X4960620Y12715239D01*
X5925820Y9870439D02*
G01*
X6164579Y9870439D01*
X6164579Y9870439D02*
G01*
X6164579Y10500360D01*
X6164579Y10500360D02*
G01*
X5925820Y10500360D01*
X5925820Y10500360D02*
G01*
X5925820Y9870439D01*
X1000760Y10167620D02*
G01*
X1000760Y10406379D01*
X1000760Y10406379D02*
G01*
X370839Y10406379D01*
X370839Y10406379D02*
G01*
X370839Y10167620D01*
X370839Y10167620D02*
G01*
X1000760Y10167620D01*
D12*
G75*
G01
X1024407Y5651500D02*
G03X1024407Y5651500I-110007J0D01*
G75*
G01
X1024407Y5397500D02*
G03X1024407Y5397500I-110007J0D01*
G75*
G01
X1024407Y5143500D02*
G03X1024407Y5143500I-110007J0D01*
G75*
G01
X1024407Y4889500D02*
G03X1024407Y4889500I-110007J0D01*
M02*
